<?xml version="1.0" encoding="UTF-8" standalone="no"?>
<!-- Created with Inkscape (http://www.inkscape.org/) -->

<svg
   version="1.1"
   id="svg1"
   width="800"
   height="494.66666"
   viewBox="0 0 800 494.66666"
   xmlns="http://www.w3.org/2000/svg"
   xmlns:svg="http://www.w3.org/2000/svg">
  <defs
     id="defs1">
    <clipPath
       clipPathUnits="userSpaceOnUse"
       id="clipPath11">
      <path
         d="m 94.55,25.55 h 410.9 V 326.44998 H 94.55 Z"
         id="path11" />
    </clipPath>
    <clipPath
       clipPathUnits="userSpaceOnUse"
       id="clipPath13">
      <path
         d="m 94.55,25.55 h 410.9 V 326.44998 H 94.55 Z"
         id="path13" />
    </clipPath>
    <clipPath
       clipPathUnits="userSpaceOnUse"
       id="clipPath15">
      <path
         d="m 94.55,25.55 h 410.9 V 326.44998 H 94.55 Z"
         id="path15" />
    </clipPath>
    <clipPath
       clipPathUnits="userSpaceOnUse"
       id="clipPath17">
      <path
         d="m 94.55,25.55 h 410.9 V 326.44998 H 94.55 Z"
         id="path17" />
    </clipPath>
    <clipPath
       clipPathUnits="userSpaceOnUse"
       id="clipPath21">
      <path
         d="m 94.55,25.55 h 410.9 V 326.44998 H 94.55 Z"
         id="path21" />
    </clipPath>
    <clipPath
       clipPathUnits="userSpaceOnUse"
       id="clipPath23">
      <path
         d="m 94.55,25.55 h 410.9 V 326.44998 H 94.55 Z"
         id="path23" />
    </clipPath>
    <clipPath
       clipPathUnits="userSpaceOnUse"
       id="clipPath25">
      <path
         d="m 94.55,25.55 h 410.9 V 326.44998 H 94.55 Z"
         id="path25" />
    </clipPath>
    <clipPath
       clipPathUnits="userSpaceOnUse"
       id="clipPath27">
      <path
         d="m 94.55,25.55 h 410.9 V 326.44998 H 94.55 Z"
         id="path27" />
    </clipPath>
    <clipPath
       clipPathUnits="userSpaceOnUse"
       id="clipPath29">
      <path
         d="m 94.55,25.55 h 410.9 V 326.44998 H 94.55 Z"
         id="path29" />
    </clipPath>
    <clipPath
       clipPathUnits="userSpaceOnUse"
       id="clipPath31">
      <path
         d="m 94.55,25.55 h 410.9 V 326.44998 H 94.55 Z"
         id="path31" />
    </clipPath>
    <clipPath
       clipPathUnits="userSpaceOnUse"
       id="clipPath33">
      <path
         d="m 94.55,25.55 h 410.9 V 326.44998 H 94.55 Z"
         id="path33" />
    </clipPath>
    <clipPath
       clipPathUnits="userSpaceOnUse"
       id="clipPath35">
      <path
         d="m 94.55,25.55 h 410.9 V 326.44998 H 94.55 Z"
         id="path35" />
    </clipPath>
    <clipPath
       clipPathUnits="userSpaceOnUse"
       id="clipPath37">
      <path
         d="m 94.55,25.55 h 410.9 V 326.44998 H 94.55 Z"
         id="path37" />
    </clipPath>
    <clipPath
       clipPathUnits="userSpaceOnUse"
       id="clipPath39">
      <path
         d="m 94.55,25.55 h 410.9 V 326.44998 H 94.55 Z"
         id="path39" />
    </clipPath>
    <clipPath
       clipPathUnits="userSpaceOnUse"
       id="clipPath41">
      <path
         d="m 94.55,25.55 h 410.9 V 326.44998 H 94.55 Z"
         id="path41" />
    </clipPath>
    <clipPath
       clipPathUnits="userSpaceOnUse"
       id="clipPath43">
      <path
         d="m 94.55,25.55 h 410.9 V 326.44998 H 94.55 Z"
         id="path43" />
    </clipPath>
    <clipPath
       clipPathUnits="userSpaceOnUse"
       id="clipPath45">
      <path
         d="m 94.55,25.55 h 410.9 V 326.44998 H 94.55 Z"
         id="path45" />
    </clipPath>
    <clipPath
       clipPathUnits="userSpaceOnUse"
       id="clipPath47">
      <path
         d="m 94.55,25.55 h 410.9 V 326.44998 H 94.55 Z"
         id="path47" />
    </clipPath>
    <clipPath
       clipPathUnits="userSpaceOnUse"
       id="clipPath49">
      <path
         d="m 94.55,25.55 h 410.9 V 326.44998 H 94.55 Z"
         id="path49" />
    </clipPath>
    <clipPath
       clipPathUnits="userSpaceOnUse"
       id="clipPath51">
      <path
         d="m 94.55,25.55 h 410.9 V 326.44998 H 94.55 Z"
         id="path51" />
    </clipPath>
    <clipPath
       clipPathUnits="userSpaceOnUse"
       id="clipPath53">
      <path
         d="m 94.55,25.55 h 410.9 V 326.44998 H 94.55 Z"
         id="path53" />
    </clipPath>
    <clipPath
       clipPathUnits="userSpaceOnUse"
       id="clipPath55">
      <path
         d="m 94.55,25.55 h 410.9 V 326.44998 H 94.55 Z"
         id="path55" />
    </clipPath>
    <clipPath
       clipPathUnits="userSpaceOnUse"
       id="clipPath57">
      <path
         d="m 94.55,25.55 h 410.9 V 326.44998 H 94.55 Z"
         id="path57" />
    </clipPath>
    <clipPath
       clipPathUnits="userSpaceOnUse"
       id="clipPath59">
      <path
         d="m 94.55,25.55 h 410.9 V 326.44998 H 94.55 Z"
         id="path59" />
    </clipPath>
    <clipPath
       clipPathUnits="userSpaceOnUse"
       id="clipPath61">
      <path
         d="m 94.55,25.55 h 410.9 V 326.44998 H 94.55 Z"
         id="path61" />
    </clipPath>
    <clipPath
       clipPathUnits="userSpaceOnUse"
       id="clipPath63">
      <path
         d="m 94.55,25.55 h 410.9 V 326.44998 H 94.55 Z"
         id="path63" />
    </clipPath>
    <clipPath
       clipPathUnits="userSpaceOnUse"
       id="clipPath65">
      <path
         d="m 94.55,25.55 h 410.9 V 326.44998 H 94.55 Z"
         id="path65" />
    </clipPath>
    <clipPath
       clipPathUnits="userSpaceOnUse"
       id="clipPath67">
      <path
         d="m 94.55,25.55 h 410.9 V 326.44998 H 94.55 Z"
         id="path67" />
    </clipPath>
    <clipPath
       clipPathUnits="userSpaceOnUse"
       id="clipPath69">
      <path
         d="m 94.55,25.55 h 410.9 V 326.44998 H 94.55 Z"
         id="path69" />
    </clipPath>
    <clipPath
       clipPathUnits="userSpaceOnUse"
       id="clipPath71">
      <path
         d="m 94.55,25.55 h 410.9 V 326.44998 H 94.55 Z"
         id="path71" />
    </clipPath>
    <clipPath
       clipPathUnits="userSpaceOnUse"
       id="clipPath73">
      <path
         d="m 94.55,25.55 h 410.9 V 326.44998 H 94.55 Z"
         id="path73" />
    </clipPath>
    <clipPath
       clipPathUnits="userSpaceOnUse"
       id="clipPath75">
      <path
         d="m 94.55,25.55 h 410.9 V 326.44998 H 94.55 Z"
         id="path75" />
    </clipPath>
    <clipPath
       clipPathUnits="userSpaceOnUse"
       id="clipPath77">
      <path
         d="m 94.55,25.55 h 410.9 V 326.44998 H 94.55 Z"
         id="path77" />
    </clipPath>
    <clipPath
       clipPathUnits="userSpaceOnUse"
       id="clipPath79">
      <path
         d="m 94.55,25.55 h 410.9 V 326.44998 H 94.55 Z"
         id="path79" />
    </clipPath>
    <clipPath
       clipPathUnits="userSpaceOnUse"
       id="clipPath81">
      <path
         d="m 94.55,25.55 h 410.9 V 326.44998 H 94.55 Z"
         id="path81" />
    </clipPath>
    <clipPath
       clipPathUnits="userSpaceOnUse"
       id="clipPath83">
      <path
         d="m 94.55,25.55 h 410.9 V 326.44998 H 94.55 Z"
         id="path83" />
    </clipPath>
    <clipPath
       clipPathUnits="userSpaceOnUse"
       id="clipPath85">
      <path
         d="m 94.55,25.55 h 410.9 V 326.44998 H 94.55 Z"
         id="path85" />
    </clipPath>
    <clipPath
       clipPathUnits="userSpaceOnUse"
       id="clipPath87">
      <path
         d="m 94.55,25.55 h 410.9 V 326.44998 H 94.55 Z"
         id="path87" />
    </clipPath>
    <clipPath
       clipPathUnits="userSpaceOnUse"
       id="clipPath89">
      <path
         d="m 94.55,25.55 h 410.9 V 326.44998 H 94.55 Z"
         id="path89" />
    </clipPath>
    <clipPath
       clipPathUnits="userSpaceOnUse"
       id="clipPath91">
      <path
         d="m 94.55,25.55 h 410.9 V 326.44998 H 94.55 Z"
         id="path91" />
    </clipPath>
    <clipPath
       clipPathUnits="userSpaceOnUse"
       id="clipPath93">
      <path
         d="m 94.55,25.55 h 410.9 V 326.44998 H 94.55 Z"
         id="path93" />
    </clipPath>
    <clipPath
       clipPathUnits="userSpaceOnUse"
       id="clipPath95">
      <path
         d="m 94.55,25.55 h 410.9 V 326.44998 H 94.55 Z"
         id="path95" />
    </clipPath>
    <clipPath
       clipPathUnits="userSpaceOnUse"
       id="clipPath97">
      <path
         d="m 94.55,25.55 h 410.9 V 326.44998 H 94.55 Z"
         id="path97" />
    </clipPath>
    <clipPath
       clipPathUnits="userSpaceOnUse"
       id="clipPath99">
      <path
         d="m 94.55,25.55 h 410.9 V 326.44998 H 94.55 Z"
         id="path99" />
    </clipPath>
    <clipPath
       clipPathUnits="userSpaceOnUse"
       id="clipPath101">
      <path
         d="m 94.55,25.55 h 410.9 V 326.44998 H 94.55 Z"
         id="path101" />
    </clipPath>
    <clipPath
       clipPathUnits="userSpaceOnUse"
       id="clipPath103">
      <path
         d="m 94.55,25.55 h 410.9 V 326.44998 H 94.55 Z"
         id="path103" />
    </clipPath>
    <clipPath
       clipPathUnits="userSpaceOnUse"
       id="clipPath105">
      <path
         d="m 94.55,25.55 h 410.9 V 326.44998 H 94.55 Z"
         id="path105" />
    </clipPath>
    <clipPath
       clipPathUnits="userSpaceOnUse"
       id="clipPath107">
      <path
         d="m 94.55,25.55 h 410.9 V 326.44998 H 94.55 Z"
         id="path107" />
    </clipPath>
    <clipPath
       clipPathUnits="userSpaceOnUse"
       id="clipPath109">
      <path
         d="m 94.55,25.55 h 410.9 V 326.44998 H 94.55 Z"
         id="path109" />
    </clipPath>
    <clipPath
       clipPathUnits="userSpaceOnUse"
       id="clipPath111">
      <path
         d="m 94.55,25.55 h 410.9 V 326.44998 H 94.55 Z"
         id="path111" />
    </clipPath>
    <clipPath
       clipPathUnits="userSpaceOnUse"
       id="clipPath113">
      <path
         d="m 94.55,25.55 h 410.9 V 326.44998 H 94.55 Z"
         id="path113" />
    </clipPath>
    <clipPath
       clipPathUnits="userSpaceOnUse"
       id="clipPath115">
      <path
         d="m 94.55,25.55 h 410.9 V 326.44998 H 94.55 Z"
         id="path115" />
    </clipPath>
    <clipPath
       clipPathUnits="userSpaceOnUse"
       id="clipPath117">
      <path
         d="m 94.55,25.55 h 410.9 V 326.44998 H 94.55 Z"
         id="path117" />
    </clipPath>
    <clipPath
       clipPathUnits="userSpaceOnUse"
       id="clipPath119">
      <path
         d="m 94.55,25.55 h 410.9 V 326.44998 H 94.55 Z"
         id="path119" />
    </clipPath>
    <clipPath
       clipPathUnits="userSpaceOnUse"
       id="clipPath121">
      <path
         d="m 94.55,25.55 h 410.9 V 326.44998 H 94.55 Z"
         id="path121" />
    </clipPath>
    <clipPath
       clipPathUnits="userSpaceOnUse"
       id="clipPath123">
      <path
         d="m 94.55,25.55 h 410.9 V 326.44998 H 94.55 Z"
         id="path123" />
    </clipPath>
    <clipPath
       clipPathUnits="userSpaceOnUse"
       id="clipPath125">
      <path
         d="m 94.55,25.55 h 410.9 V 326.44998 H 94.55 Z"
         id="path125" />
    </clipPath>
    <clipPath
       clipPathUnits="userSpaceOnUse"
       id="clipPath127">
      <path
         d="m 94.55,25.55 h 410.9 V 326.44998 H 94.55 Z"
         id="path127" />
    </clipPath>
    <clipPath
       clipPathUnits="userSpaceOnUse"
       id="clipPath129">
      <path
         d="m 94.55,25.55 h 410.9 V 326.44998 H 94.55 Z"
         id="path129" />
    </clipPath>
    <clipPath
       clipPathUnits="userSpaceOnUse"
       id="clipPath131">
      <path
         d="m 94.55,25.55 h 410.9 V 326.44998 H 94.55 Z"
         id="path131" />
    </clipPath>
    <clipPath
       clipPathUnits="userSpaceOnUse"
       id="clipPath133">
      <path
         d="m 94.55,25.55 h 410.9 V 326.44998 H 94.55 Z"
         id="path133" />
    </clipPath>
    <clipPath
       clipPathUnits="userSpaceOnUse"
       id="clipPath135">
      <path
         d="m 94.55,25.55 h 410.9 V 326.44998 H 94.55 Z"
         id="path135" />
    </clipPath>
    <clipPath
       clipPathUnits="userSpaceOnUse"
       id="clipPath137">
      <path
         d="m 94.55,25.55 h 410.9 V 326.44998 H 94.55 Z"
         id="path137" />
    </clipPath>
  </defs>
  <g
     id="g1">
    <path
       id="path1"
       d="M 0,0 H 600 V 371 H 0 Z"
       style="fill:#ffffff;fill-opacity:1;fill-rule:nonzero;stroke:none"
       transform="scale(1.3333333)" />
    <path
       id="path2"
       d="m 94.5,326.5 h 411"
       style="fill:none;stroke:#333333;stroke-width:1;stroke-linecap:butt;stroke-linejoin:miter;stroke-miterlimit:10;stroke-dasharray:none;stroke-opacity:1"
       transform="scale(1.3333333)" />
    <path
       id="path3"
       d="m 94.5,251.5 h 411"
       style="fill:none;stroke:#cccccc;stroke-width:1;stroke-linecap:butt;stroke-linejoin:miter;stroke-miterlimit:10;stroke-dasharray:none;stroke-opacity:1"
       transform="scale(1.3333333)" />
    <path
       id="path4"
       d="m 94.5,176.5 h 411"
       style="fill:none;stroke:#cccccc;stroke-width:1;stroke-linecap:butt;stroke-linejoin:miter;stroke-miterlimit:10;stroke-dasharray:none;stroke-opacity:1"
       transform="scale(1.3333333)" />
    <path
       id="path5"
       d="m 94.5,100.5 h 411"
       style="fill:none;stroke:#cccccc;stroke-width:1;stroke-linecap:butt;stroke-linejoin:miter;stroke-miterlimit:10;stroke-dasharray:none;stroke-opacity:1"
       transform="scale(1.3333333)" />
    <path
       id="path6"
       d="m 94.5,25.5 h 411"
       style="fill:none;stroke:#cccccc;stroke-width:1;stroke-linecap:butt;stroke-linejoin:miter;stroke-miterlimit:10;stroke-dasharray:none;stroke-opacity:1"
       transform="scale(1.3333333)" />
    <path
       id="path7"
       d="m 505.5,25.5 v 301"
       style="fill:none;stroke:#000000;stroke-width:1;stroke-linecap:butt;stroke-linejoin:miter;stroke-miterlimit:10;stroke-dasharray:none;stroke-opacity:1"
       transform="scale(1.3333333)" />
    <path
       id="path8"
       d="M 505.5,326.5 H 94.5"
       style="fill:none;stroke:#000000;stroke-width:1;stroke-linecap:butt;stroke-linejoin:miter;stroke-miterlimit:10;stroke-dasharray:none;stroke-opacity:1"
       transform="scale(1.3333333)" />
    <path
       id="path9"
       d="M 94.5,326.5 V 25.5"
       style="fill:none;stroke:#000000;stroke-width:1;stroke-linecap:butt;stroke-linejoin:miter;stroke-miterlimit:10;stroke-dasharray:none;stroke-opacity:1"
       transform="scale(1.3333333)" />
    <path
       id="path10"
       d="M 495.91415,-153.73625 474.6391,191.045 444.6536,176 l -37.77726,47.6425 -29.9855,-20.06 -21.27506,13.79125 -29.9855,-20.06 -21.27506,-1.25375 -10.58279,-7.5225 -12.35419,3.76125 -14.84027,-50.15001 -18.58555,77.73376 -24.88324,-70.21125 -37.77727,-32.5975 -81.24606,6.26875"
       style="fill:none;stroke:#4285f4;stroke-width:2;stroke-linecap:butt;stroke-linejoin:miter;stroke-miterlimit:10;stroke-dasharray:none;stroke-opacity:1"
       transform="scale(1.3333333)"
       clip-path="url(#clipPath11)" />
    <path
       id="path12"
       d="m 495.91415,326.0429 -21.27505,-0.10177 -29.9855,-4.20663 -37.77726,-7.0563 -29.9855,-6.81886 -21.27506,-1.59444 -29.9855,-25.34165 -21.27506,2.84965 -10.58279,-27.2075 -12.35419,20.7279 -14.84027,-33.34783 -18.58555,-13.53272 -24.88324,-162.06081 -37.77727,16.24987 -81.24606,71.20765"
       style="fill:none;stroke:#ea4335;stroke-width:2;stroke-linecap:butt;stroke-linejoin:miter;stroke-miterlimit:10;stroke-dasharray:none;stroke-opacity:1"
       transform="scale(1.3333333)"
       clip-path="url(#clipPath13)" />
    <path
       id="path14"
       d="m 495.91415,229.6605 h -21.27505 -29.9855 -37.77726 -29.9855 -21.27506 -29.9855 -21.27506 -10.58279 -12.35419 -14.84027 -18.58555 -24.88324 -37.77727 -81.24606"
       style="fill:none;stroke:#ff0000;stroke-width:2;stroke-linecap:butt;stroke-linejoin:miter;stroke-miterlimit:10;stroke-dasharray:8, 6;stroke-dashoffset:0;stroke-opacity:1"
       transform="scale(1.3333333)"
       clip-path="url(#clipPath15)" />
    <path
       id="path16"
       d="m 495.91415,198.5675 h -21.27505 -29.9855 -37.77726 -29.9855 -21.27506 -29.9855 -21.27506 -10.58279 -12.35419 -14.84027 -18.58555 -24.88324 -37.77727 -81.24606"
       style="fill:none;stroke:#4285f4;stroke-width:2;stroke-linecap:butt;stroke-linejoin:miter;stroke-miterlimit:10;stroke-dasharray:8, 6;stroke-dashoffset:0;stroke-opacity:1"
       transform="scale(1.3333333)"
       clip-path="url(#clipPath17)" />
    <path
       id="path20"
       d="m 474.6391,185.045 5.19614,9 h -10.39231 z"
       style="fill:#4285f4;fill-opacity:1;fill-rule:nonzero;stroke:none"
       transform="scale(1.3333333)"
       clip-path="url(#clipPath21)" />
    <path
       id="path22"
       d="m 444.6536,170 5.19613,9 h -10.3923 z"
       style="fill:#4285f4;fill-opacity:1;fill-rule:nonzero;stroke:none"
       transform="scale(1.3333333)"
       clip-path="url(#clipPath23)" />
    <path
       id="path24"
       d="m 406.87634,217.6425 5.19614,9 h -10.3923 z"
       style="fill:#4285f4;fill-opacity:1;fill-rule:nonzero;stroke:none"
       transform="scale(1.3333333)"
       clip-path="url(#clipPath25)" />
    <path
       id="path26"
       d="m 376.89084,197.5825 5.19614,9 h -10.39231 z"
       style="fill:#4285f4;fill-opacity:1;fill-rule:nonzero;stroke:none"
       transform="scale(1.3333333)"
       clip-path="url(#clipPath27)" />
    <path
       id="path28"
       d="m 355.61578,211.37375 5.19614,9 h -10.3923 z"
       style="fill:#4285f4;fill-opacity:1;fill-rule:nonzero;stroke:none"
       transform="scale(1.3333333)"
       clip-path="url(#clipPath29)" />
    <path
       id="path30"
       d="m 325.63028,191.31375 5.19614,9 H 320.4341 Z"
       style="fill:#4285f4;fill-opacity:1;fill-rule:nonzero;stroke:none"
       transform="scale(1.3333333)"
       clip-path="url(#clipPath31)" />
    <path
       id="path32"
       d="m 304.35522,190.06 5.19618,9 h -10.39234 z"
       style="fill:#4285f4;fill-opacity:1;fill-rule:nonzero;stroke:none"
       transform="scale(1.3333333)"
       clip-path="url(#clipPath33)" />
    <path
       id="path34"
       d="m 293.77243,182.5375 5.19617,9 h -10.3923 z"
       style="fill:#4285f4;fill-opacity:1;fill-rule:nonzero;stroke:none"
       transform="scale(1.3333333)"
       clip-path="url(#clipPath35)" />
    <path
       id="path36"
       d="m 281.41824,186.29875 5.19614,9 h -10.3923 z"
       style="fill:#4285f4;fill-opacity:1;fill-rule:nonzero;stroke:none"
       transform="scale(1.3333333)"
       clip-path="url(#clipPath37)" />
    <path
       id="path38"
       d="m 266.57797,136.14874 5.19613,9 h -10.3923 z"
       style="fill:#4285f4;fill-opacity:1;fill-rule:nonzero;stroke:none"
       transform="scale(1.3333333)"
       clip-path="url(#clipPath39)" />
    <path
       id="path40"
       d="m 247.99242,213.8825 5.19615,9 h -10.39231 z"
       style="fill:#4285f4;fill-opacity:1;fill-rule:nonzero;stroke:none"
       transform="scale(1.3333333)"
       clip-path="url(#clipPath41)" />
    <path
       id="path42"
       d="m 223.10918,143.67125 5.19615,9 h -10.39231 z"
       style="fill:#4285f4;fill-opacity:1;fill-rule:nonzero;stroke:none"
       transform="scale(1.3333333)"
       clip-path="url(#clipPath43)" />
    <path
       id="path44"
       d="m 185.33191,111.07375 5.19615,9 h -10.3923 z"
       style="fill:#4285f4;fill-opacity:1;fill-rule:nonzero;stroke:none"
       transform="scale(1.3333333)"
       clip-path="url(#clipPath45)" />
    <path
       id="path46"
       d="m 104.08585,117.3425 5.19615,9 H 98.8897 Z"
       style="fill:#4285f4;fill-opacity:1;fill-rule:nonzero;stroke:none"
       transform="scale(1.3333333)"
       clip-path="url(#clipPath47)" />
    <path
       id="path48"
       d="m 501.91415,326.0429 c 0,3.31373 -2.68631,6 -6,6 -3.31372,0 -6,-2.68627 -6,-6 0,-3.3137 2.68628,-6 6,-6 3.31369,0 6,2.6863 6,6 z"
       style="fill:#ea4335;fill-opacity:1;fill-rule:nonzero;stroke:none"
       transform="scale(1.3333333)"
       clip-path="url(#clipPath49)" />
    <path
       id="path50"
       d="m 480.6391,325.94113 c 0,3.31372 -2.6863,6 -6,6 -3.31372,0 -6,-2.68628 -6,-6 0,-3.31373 2.68628,-6 6,-6 3.3137,0 6,2.68627 6,6 z"
       style="fill:#ea4335;fill-opacity:1;fill-rule:nonzero;stroke:none"
       transform="scale(1.3333333)"
       clip-path="url(#clipPath51)" />
    <path
       id="path52"
       d="m 450.6536,321.7345 c 0,3.3137 -2.68628,6 -6,6 -3.31373,0 -6,-2.6863 -6,-6 0,-3.31372 2.68627,-6 6,-6 3.31372,0 6,2.68628 6,6 z"
       style="fill:#ea4335;fill-opacity:1;fill-rule:nonzero;stroke:none"
       transform="scale(1.3333333)"
       clip-path="url(#clipPath53)" />
    <path
       id="path54"
       d="m 412.87634,314.6782 c 0,3.31368 -2.68631,6 -6,6 -3.31372,0 -6,-2.68632 -6,-6 0,-3.31373 2.68628,-6 6,-6 3.31369,0 6,2.68627 6,6 z"
       style="fill:#ea4335;fill-opacity:1;fill-rule:nonzero;stroke:none"
       transform="scale(1.3333333)"
       clip-path="url(#clipPath55)" />
    <path
       id="path56"
       d="m 382.89084,307.85934 c 0,3.31369 -2.68631,6 -6,6 -3.31372,0 -6,-2.68631 -6,-6 0,-3.31372 2.68628,-6 6,-6 3.31369,0 6,2.68628 6,6 z"
       style="fill:#ea4335;fill-opacity:1;fill-rule:nonzero;stroke:none"
       transform="scale(1.3333333)"
       clip-path="url(#clipPath57)" />
    <path
       id="path58"
       d="m 361.61578,306.2649 c 0,3.31368 -2.68631,6 -6,6 -3.31372,0 -6,-2.68632 -6,-6 0,-3.31373 2.68628,-6 6,-6 3.31369,0 6,2.68627 6,6 z"
       style="fill:#ea4335;fill-opacity:1;fill-rule:nonzero;stroke:none"
       transform="scale(1.3333333)"
       clip-path="url(#clipPath59)" />
    <path
       id="path60"
       d="m 331.63028,280.92325 c 0,3.31369 -2.68631,6 -6,6 -3.31372,0 -6,-2.68631 -6,-6 0,-3.31372 2.68628,-6 6,-6 3.31369,0 6,2.68628 6,6 z"
       style="fill:#ea4335;fill-opacity:1;fill-rule:nonzero;stroke:none"
       transform="scale(1.3333333)"
       clip-path="url(#clipPath61)" />
    <path
       id="path62"
       d="m 310.35522,283.7729 c 0,3.3137 -2.68627,6 -6,6 -3.31372,0 -6,-2.6863 -6,-6 0,-3.3137 2.68628,-6 6,-6 3.31373,0 6,2.6863 6,6 z"
       style="fill:#ea4335;fill-opacity:1;fill-rule:nonzero;stroke:none"
       transform="scale(1.3333333)"
       clip-path="url(#clipPath63)" />
    <path
       id="path64"
       d="m 299.77243,256.5654 c 0,3.31372 -2.68628,6 -6,6 -3.31369,0 -6,-2.68628 -6,-6 0,-3.3137 2.68631,-6 6,-6 3.31372,0 6,2.6863 6,6 z"
       style="fill:#ea4335;fill-opacity:1;fill-rule:nonzero;stroke:none"
       transform="scale(1.3333333)"
       clip-path="url(#clipPath65)" />
    <path
       id="path66"
       d="m 287.41824,277.2933 c 0,3.31373 -2.68631,6 -6,6 -3.31372,0 -6,-2.68627 -6,-6 0,-3.3137 2.68628,-6 6,-6 3.31369,0 6,2.6863 6,6 z"
       style="fill:#ea4335;fill-opacity:1;fill-rule:nonzero;stroke:none"
       transform="scale(1.3333333)"
       clip-path="url(#clipPath67)" />
    <path
       id="path68"
       d="m 272.57797,243.94547 c 0,3.3137 -2.68631,6 -6,6 -3.31372,0 -6,-2.6863 -6,-6 0,-3.31371 2.68628,-6 6,-6 3.31369,0 6,2.68629 6,6 z"
       style="fill:#ea4335;fill-opacity:1;fill-rule:nonzero;stroke:none"
       transform="scale(1.3333333)"
       clip-path="url(#clipPath69)" />
    <path
       id="path70"
       d="m 253.99242,230.41275 c 0,3.31371 -2.6863,6 -6,6 -3.31371,0 -6,-2.68629 -6,-6 0,-3.31371 2.68629,-6 6,-6 3.3137,0 6,2.68629 6,6 z"
       style="fill:#ea4335;fill-opacity:1;fill-rule:nonzero;stroke:none"
       transform="scale(1.3333333)"
       clip-path="url(#clipPath71)" />
    <path
       id="path72"
       d="m 229.10918,68.35194 c 0,3.31371 -2.6863,6 -6,6 -3.31372,0 -6,-2.68629 -6,-6 0,-3.31371 2.68628,-6 6,-6 3.3137,0 6,2.68629 6,6 z"
       style="fill:#ea4335;fill-opacity:1;fill-rule:nonzero;stroke:none"
       transform="scale(1.3333333)"
       clip-path="url(#clipPath73)" />
    <path
       id="path74"
       d="m 191.33191,84.60181 c 0,3.3137 -2.6863,6 -6,6 -3.31371,0 -6,-2.6863 -6,-6 0,-3.31372 2.68629,-6 6,-6 3.3137,0 6,2.68628 6,6 z"
       style="fill:#ea4335;fill-opacity:1;fill-rule:nonzero;stroke:none"
       transform="scale(1.3333333)"
       clip-path="url(#clipPath75)" />
    <path
       id="path76"
       d="m 110.08585,155.80946 c 0,3.31371 -2.68628,6 -6,6 -3.3137,0 -6,-2.68629 -6,-6 0,-3.31372 2.6863,-6 6,-6 3.31372,0 6,2.68628 6,6 z"
       style="fill:#ea4335;fill-opacity:1;fill-rule:nonzero;stroke:none"
       transform="scale(1.3333333)"
       clip-path="url(#clipPath77)" />
    <path
       id="path78"
       d="m 498.91415,229.6605 c 0,1.65685 -1.34317,3 -3,3 -1.65685,0 -3,-1.34315 -3,-3 0,-1.65685 1.34315,-3 3,-3 1.65683,0 3,1.34315 3,3 z"
       style="fill:#000000;fill-opacity:0;fill-rule:nonzero;stroke:none"
       transform="scale(1.3333333)"
       clip-path="url(#clipPath79)" />
    <path
       id="path80"
       d="m 477.6391,229.6605 c 0,1.65685 -1.34314,3 -3,3 -1.65686,0 -3,-1.34315 -3,-3 0,-1.65685 1.34314,-3 3,-3 1.65686,0 3,1.34315 3,3 z"
       style="fill:#000000;fill-opacity:0;fill-rule:nonzero;stroke:none"
       transform="scale(1.3333333)"
       clip-path="url(#clipPath81)" />
    <path
       id="path82"
       d="m 447.6536,229.6605 c 0,1.65685 -1.34314,3 -3,3 -1.65687,0 -3,-1.34315 -3,-3 0,-1.65685 1.34313,-3 3,-3 1.65686,0 3,1.34315 3,3 z"
       style="fill:#000000;fill-opacity:0;fill-rule:nonzero;stroke:none"
       transform="scale(1.3333333)"
       clip-path="url(#clipPath83)" />
    <path
       id="path84"
       d="m 409.87634,229.6605 c 0,1.65685 -1.34317,3 -3,3 -1.65686,0 -3,-1.34315 -3,-3 0,-1.65685 1.34314,-3 3,-3 1.65683,0 3,1.34315 3,3 z"
       style="fill:#000000;fill-opacity:0;fill-rule:nonzero;stroke:none"
       transform="scale(1.3333333)"
       clip-path="url(#clipPath85)" />
    <path
       id="path86"
       d="m 379.89084,229.6605 c 0,1.65685 -1.34317,3 -3,3 -1.65686,0 -3,-1.34315 -3,-3 0,-1.65685 1.34314,-3 3,-3 1.65683,0 3,1.34315 3,3 z"
       style="fill:#000000;fill-opacity:0;fill-rule:nonzero;stroke:none"
       transform="scale(1.3333333)"
       clip-path="url(#clipPath87)" />
    <path
       id="path88"
       d="m 358.61578,229.6605 c 0,1.65685 -1.34314,3 -3,3 -1.65686,0 -3,-1.34315 -3,-3 0,-1.65685 1.34314,-3 3,-3 1.65686,0 3,1.34315 3,3 z"
       style="fill:#000000;fill-opacity:0;fill-rule:nonzero;stroke:none"
       transform="scale(1.3333333)"
       clip-path="url(#clipPath89)" />
    <path
       id="path90"
       d="m 328.63028,229.6605 c 0,1.65685 -1.34314,3 -3,3 -1.65686,0 -3,-1.34315 -3,-3 0,-1.65685 1.34314,-3 3,-3 1.65686,0 3,1.34315 3,3 z"
       style="fill:#000000;fill-opacity:0;fill-rule:nonzero;stroke:none"
       transform="scale(1.3333333)"
       clip-path="url(#clipPath91)" />
    <path
       id="path92"
       d="m 307.35522,229.6605 c 0,1.65685 -1.34312,3 -3,3 -1.65686,0 -3,-1.34315 -3,-3 0,-1.65685 1.34314,-3 3,-3 1.65688,0 3,1.34315 3,3 z"
       style="fill:#000000;fill-opacity:0;fill-rule:nonzero;stroke:none"
       transform="scale(1.3333333)"
       clip-path="url(#clipPath93)" />
    <path
       id="path94"
       d="m 296.77243,229.6605 c 0,1.65685 -1.34313,3 -3,3 -1.65686,0 -3,-1.34315 -3,-3 0,-1.65685 1.34314,-3 3,-3 1.65687,0 3,1.34315 3,3 z"
       style="fill:#000000;fill-opacity:0;fill-rule:nonzero;stroke:none"
       transform="scale(1.3333333)"
       clip-path="url(#clipPath95)" />
    <path
       id="path96"
       d="m 284.41824,229.6605 c 0,1.65685 -1.34317,3 -3,3 -1.65686,0 -3,-1.34315 -3,-3 0,-1.65685 1.34314,-3 3,-3 1.65683,0 3,1.34315 3,3 z"
       style="fill:#000000;fill-opacity:0;fill-rule:nonzero;stroke:none"
       transform="scale(1.3333333)"
       clip-path="url(#clipPath97)" />
    <path
       id="path98"
       d="m 269.57797,229.6605 c 0,1.65685 -1.34317,3 -3,3 -1.65687,0 -3,-1.34315 -3,-3 0,-1.65685 1.34313,-3 3,-3 1.65683,0 3,1.34315 3,3 z"
       style="fill:#000000;fill-opacity:0;fill-rule:nonzero;stroke:none"
       transform="scale(1.3333333)"
       clip-path="url(#clipPath99)" />
    <path
       id="path100"
       d="m 250.99242,229.6605 c 0,1.65685 -1.34314,3 -3,3 -1.65685,0 -3,-1.34315 -3,-3 0,-1.65685 1.34315,-3 3,-3 1.65686,0 3,1.34315 3,3 z"
       style="fill:#000000;fill-opacity:0;fill-rule:nonzero;stroke:none"
       transform="scale(1.3333333)"
       clip-path="url(#clipPath101)" />
    <path
       id="path102"
       d="m 226.10918,229.6605 c 0,1.65685 -1.34316,3 -3,3 -1.65686,0 -3,-1.34315 -3,-3 0,-1.65685 1.34314,-3 3,-3 1.65684,0 3,1.34315 3,3 z"
       style="fill:#000000;fill-opacity:0;fill-rule:nonzero;stroke:none"
       transform="scale(1.3333333)"
       clip-path="url(#clipPath103)" />
    <path
       id="path104"
       d="m 188.33191,229.6605 c 0,1.65685 -1.34314,3 -3,3 -1.65686,0 -3,-1.34315 -3,-3 0,-1.65685 1.34314,-3 3,-3 1.65686,0 3,1.34315 3,3 z"
       style="fill:#000000;fill-opacity:0;fill-rule:nonzero;stroke:none"
       transform="scale(1.3333333)"
       clip-path="url(#clipPath105)" />
    <path
       id="path106"
       d="m 107.08585,229.6605 c 0,1.65685 -1.34314,3 -3,3 -1.65685,0 -3,-1.34315 -3,-3 0,-1.65685 1.34315,-3 3,-3 1.65686,0 3,1.34315 3,3 z"
       style="fill:#000000;fill-opacity:0;fill-rule:nonzero;stroke:none"
       transform="scale(1.3333333)"
       clip-path="url(#clipPath107)" />
    <path
       id="path108"
       d="m 498.91415,198.5675 c 0,1.65685 -1.34317,3 -3,3 -1.65685,0 -3,-1.34315 -3,-3 0,-1.65686 1.34315,-3 3,-3 1.65683,0 3,1.34314 3,3 z"
       style="fill:#000000;fill-opacity:0;fill-rule:nonzero;stroke:none"
       transform="scale(1.3333333)"
       clip-path="url(#clipPath109)" />
    <path
       id="path110"
       d="m 477.6391,198.5675 c 0,1.65685 -1.34314,3 -3,3 -1.65686,0 -3,-1.34315 -3,-3 0,-1.65686 1.34314,-3 3,-3 1.65686,0 3,1.34314 3,3 z"
       style="fill:#000000;fill-opacity:0;fill-rule:nonzero;stroke:none"
       transform="scale(1.3333333)"
       clip-path="url(#clipPath111)" />
    <path
       id="path112"
       d="m 447.6536,198.5675 c 0,1.65685 -1.34314,3 -3,3 -1.65687,0 -3,-1.34315 -3,-3 0,-1.65686 1.34313,-3 3,-3 1.65686,0 3,1.34314 3,3 z"
       style="fill:#000000;fill-opacity:0;fill-rule:nonzero;stroke:none"
       transform="scale(1.3333333)"
       clip-path="url(#clipPath113)" />
    <path
       id="path114"
       d="m 409.87634,198.5675 c 0,1.65685 -1.34317,3 -3,3 -1.65686,0 -3,-1.34315 -3,-3 0,-1.65686 1.34314,-3 3,-3 1.65683,0 3,1.34314 3,3 z"
       style="fill:#000000;fill-opacity:0;fill-rule:nonzero;stroke:none"
       transform="scale(1.3333333)"
       clip-path="url(#clipPath115)" />
    <path
       id="path116"
       d="m 379.89084,198.5675 c 0,1.65685 -1.34317,3 -3,3 -1.65686,0 -3,-1.34315 -3,-3 0,-1.65686 1.34314,-3 3,-3 1.65683,0 3,1.34314 3,3 z"
       style="fill:#000000;fill-opacity:0;fill-rule:nonzero;stroke:none"
       transform="scale(1.3333333)"
       clip-path="url(#clipPath117)" />
    <path
       id="path118"
       d="m 358.61578,198.5675 c 0,1.65685 -1.34314,3 -3,3 -1.65686,0 -3,-1.34315 -3,-3 0,-1.65686 1.34314,-3 3,-3 1.65686,0 3,1.34314 3,3 z"
       style="fill:#000000;fill-opacity:0;fill-rule:nonzero;stroke:none"
       transform="scale(1.3333333)"
       clip-path="url(#clipPath119)" />
    <path
       id="path120"
       d="m 328.63028,198.5675 c 0,1.65685 -1.34314,3 -3,3 -1.65686,0 -3,-1.34315 -3,-3 0,-1.65686 1.34314,-3 3,-3 1.65686,0 3,1.34314 3,3 z"
       style="fill:#000000;fill-opacity:0;fill-rule:nonzero;stroke:none"
       transform="scale(1.3333333)"
       clip-path="url(#clipPath121)" />
    <path
       id="path122"
       d="m 307.35522,198.5675 c 0,1.65685 -1.34312,3 -3,3 -1.65686,0 -3,-1.34315 -3,-3 0,-1.65686 1.34314,-3 3,-3 1.65688,0 3,1.34314 3,3 z"
       style="fill:#000000;fill-opacity:0;fill-rule:nonzero;stroke:none"
       transform="scale(1.3333333)"
       clip-path="url(#clipPath123)" />
    <path
       id="path124"
       d="m 296.77243,198.5675 c 0,1.65685 -1.34313,3 -3,3 -1.65686,0 -3,-1.34315 -3,-3 0,-1.65686 1.34314,-3 3,-3 1.65687,0 3,1.34314 3,3 z"
       style="fill:#000000;fill-opacity:0;fill-rule:nonzero;stroke:none"
       transform="scale(1.3333333)"
       clip-path="url(#clipPath125)" />
    <path
       id="path126"
       d="m 284.41824,198.5675 c 0,1.65685 -1.34317,3 -3,3 -1.65686,0 -3,-1.34315 -3,-3 0,-1.65686 1.34314,-3 3,-3 1.65683,0 3,1.34314 3,3 z"
       style="fill:#000000;fill-opacity:0;fill-rule:nonzero;stroke:none"
       transform="scale(1.3333333)"
       clip-path="url(#clipPath127)" />
    <path
       id="path128"
       d="m 269.57797,198.5675 c 0,1.65685 -1.34317,3 -3,3 -1.65687,0 -3,-1.34315 -3,-3 0,-1.65686 1.34313,-3 3,-3 1.65683,0 3,1.34314 3,3 z"
       style="fill:#000000;fill-opacity:0;fill-rule:nonzero;stroke:none"
       transform="scale(1.3333333)"
       clip-path="url(#clipPath129)" />
    <path
       id="path130"
       d="m 250.99242,198.5675 c 0,1.65685 -1.34314,3 -3,3 -1.65685,0 -3,-1.34315 -3,-3 0,-1.65686 1.34315,-3 3,-3 1.65686,0 3,1.34314 3,3 z"
       style="fill:#000000;fill-opacity:0;fill-rule:nonzero;stroke:none"
       transform="scale(1.3333333)"
       clip-path="url(#clipPath131)" />
    <path
       id="path132"
       d="m 226.10918,198.5675 c 0,1.65685 -1.34316,3 -3,3 -1.65686,0 -3,-1.34315 -3,-3 0,-1.65686 1.34314,-3 3,-3 1.65684,0 3,1.34314 3,3 z"
       style="fill:#000000;fill-opacity:0;fill-rule:nonzero;stroke:none"
       transform="scale(1.3333333)"
       clip-path="url(#clipPath133)" />
    <path
       id="path134"
       d="m 188.33191,198.5675 c 0,1.65685 -1.34314,3 -3,3 -1.65686,0 -3,-1.34315 -3,-3 0,-1.65686 1.34314,-3 3,-3 1.65686,0 3,1.34314 3,3 z"
       style="fill:#000000;fill-opacity:0;fill-rule:nonzero;stroke:none"
       transform="scale(1.3333333)"
       clip-path="url(#clipPath135)" />
    <path
       id="path136"
       d="m 107.08585,198.5675 c 0,1.65685 -1.34314,3 -3,3 -1.65685,0 -3,-1.34315 -3,-3 0,-1.65686 1.34315,-3 3,-3 1.65686,0 3,1.34314 3,3 z"
       style="fill:#000000;fill-opacity:0;fill-rule:nonzero;stroke:none"
       transform="scale(1.3333333)"
       clip-path="url(#clipPath137)" />
    <path
       id="path138"
       d="m 104.5,332.5 v -12"
       style="fill:none;stroke:#000000;stroke-width:1;stroke-linecap:butt;stroke-linejoin:miter;stroke-miterlimit:10;stroke-dasharray:none;stroke-opacity:1"
       transform="scale(1.3333333)" />
    <path
       id="path139"
       d="m 223.5,332.5 v -12"
       style="fill:none;stroke:#000000;stroke-width:1;stroke-linecap:butt;stroke-linejoin:miter;stroke-miterlimit:10;stroke-dasharray:none;stroke-opacity:1"
       transform="scale(1.3333333)" />
    <path
       id="path140"
       d="m 274.5,332.5 v -12"
       style="fill:none;stroke:#000000;stroke-width:1;stroke-linecap:butt;stroke-linejoin:miter;stroke-miterlimit:10;stroke-dasharray:none;stroke-opacity:1"
       transform="scale(1.3333333)" />
    <path
       id="path141"
       d="m 393.5,332.5 v -12"
       style="fill:none;stroke:#000000;stroke-width:1;stroke-linecap:butt;stroke-linejoin:miter;stroke-miterlimit:10;stroke-dasharray:none;stroke-opacity:1"
       transform="scale(1.3333333)" />
    <path
       id="path142"
       d="m 444.5,332.5 v -12"
       style="fill:none;stroke:#000000;stroke-width:1;stroke-linecap:butt;stroke-linejoin:miter;stroke-miterlimit:10;stroke-dasharray:none;stroke-opacity:1"
       transform="scale(1.3333333)" />
    <path
       id="path143"
       d="m 88.5,326.5 h 12"
       style="fill:none;stroke:#000000;stroke-width:1;stroke-linecap:butt;stroke-linejoin:miter;stroke-miterlimit:10;stroke-dasharray:none;stroke-opacity:1"
       transform="scale(1.3333333)" />
    <path
       id="path144"
       d="m 88.5,251.5 h 12"
       style="fill:none;stroke:#000000;stroke-width:1;stroke-linecap:butt;stroke-linejoin:miter;stroke-miterlimit:10;stroke-dasharray:none;stroke-opacity:1"
       transform="scale(1.3333333)" />
    <path
       id="path145"
       d="m 88.5,176.5 h 12"
       style="fill:none;stroke:#000000;stroke-width:1;stroke-linecap:butt;stroke-linejoin:miter;stroke-miterlimit:10;stroke-dasharray:none;stroke-opacity:1"
       transform="scale(1.3333333)" />
    <path
       id="path146"
       d="m 88.5,100.5 h 12"
       style="fill:none;stroke:#000000;stroke-width:1;stroke-linecap:butt;stroke-linejoin:miter;stroke-miterlimit:10;stroke-dasharray:none;stroke-opacity:1"
       transform="scale(1.3333333)" />
    <path
       id="path147"
       d="m 88.5,25.5 h 12"
       style="fill:none;stroke:#000000;stroke-width:1;stroke-linecap:butt;stroke-linejoin:miter;stroke-miterlimit:10;stroke-dasharray:none;stroke-opacity:1"
       transform="scale(1.3333333)" />
    <path
       id="path148"
       d="m 511.5,326.5 h -12"
       style="fill:none;stroke:#000000;stroke-width:1;stroke-linecap:butt;stroke-linejoin:miter;stroke-miterlimit:10;stroke-dasharray:none;stroke-opacity:1"
       transform="scale(1.3333333)" />
    <path
       id="path149"
       d="m 511.5,276.5 h -12"
       style="fill:none;stroke:#000000;stroke-width:1;stroke-linecap:butt;stroke-linejoin:miter;stroke-miterlimit:10;stroke-dasharray:none;stroke-opacity:1"
       transform="scale(1.3333333)" />
    <path
       id="path150"
       d="m 511.5,226.5 h -12"
       style="fill:none;stroke:#000000;stroke-width:1;stroke-linecap:butt;stroke-linejoin:miter;stroke-miterlimit:10;stroke-dasharray:none;stroke-opacity:1"
       transform="scale(1.3333333)" />
    <path
       id="path151"
       d="m 511.5,176.5 h -12"
       style="fill:none;stroke:#000000;stroke-width:1;stroke-linecap:butt;stroke-linejoin:miter;stroke-miterlimit:10;stroke-dasharray:none;stroke-opacity:1"
       transform="scale(1.3333333)" />
    <path
       id="path152"
       d="m 511.5,125.5 h -12"
       style="fill:none;stroke:#000000;stroke-width:1;stroke-linecap:butt;stroke-linejoin:miter;stroke-miterlimit:10;stroke-dasharray:none;stroke-opacity:1"
       transform="scale(1.3333333)" />
    <path
       id="path153"
       d="m 511.5,75.5 h -12"
       style="fill:none;stroke:#000000;stroke-width:1;stroke-linecap:butt;stroke-linejoin:miter;stroke-miterlimit:10;stroke-dasharray:none;stroke-opacity:1"
       transform="scale(1.3333333)" />
    <path
       id="path154"
       d="m 511.5,25.5 h -12"
       style="fill:none;stroke:#000000;stroke-width:1;stroke-linecap:butt;stroke-linejoin:miter;stroke-miterlimit:10;stroke-dasharray:none;stroke-opacity:1"
       transform="scale(1.3333333)" />
    <text
       id="text154"
       xml:space="preserve"
       transform="matrix(0,-1.3333333,1.3333333,0,44.733333,279.33333)"><tspan
         style="font-variant:normal;font-weight:normal;font-size:16px;font-family:Arial;writing-mode:lr-tb;fill:#4285f4;fill-opacity:1;fill-rule:nonzero;stroke:none"
         x="0 9.7600002 18.656 22.208 25.76 34.655998 39.984001"
         y="0"
         id="tspan154">Failure</tspan></text>
    <text
       id="text155"
       xml:space="preserve"
       transform="matrix(0,-1.3333333,1.3333333,0,769.93333,316.66667)"><tspan
         style="font-variant:normal;font-weight:normal;font-size:16px;font-family:Arial;writing-mode:lr-tb;fill:#ea4335;fill-opacity:1;fill-rule:nonzero;stroke:none"
         x="0 11.552 15.104 23.104 31.104 40 53.327999 57.759998 66.655998 71.984001 76.416 80.848 86.176003 100.4"
         y="0"
         id="tspan155">Discomfort (%)</tspan></text>
    <text
       id="text156"
       xml:space="preserve"
       transform="matrix(1.3333333,0,0,1.3333333,100.73333,440.6)"><tspan
         style="font-variant:normal;font-weight:normal;font-size:12px;font-family:Arial;writing-mode:lr-tb;fill:#000000;fill-opacity:1;fill-rule:nonzero;stroke:none"
         x="0"
         y="0"
         id="tspan156">0</tspan></text>
    <text
       id="text157"
       xml:space="preserve"
       transform="matrix(1.3333333,0,0,1.3333333,91.4,340.3)"><tspan
         style="font-variant:normal;font-weight:normal;font-size:12px;font-family:Arial;writing-mode:lr-tb;fill:#000000;fill-opacity:1;fill-rule:nonzero;stroke:none"
         x="0 6.6719999"
         y="0"
         id="tspan157">20</tspan></text>
    <text
       id="text158"
       xml:space="preserve"
       transform="matrix(1.3333333,0,0,1.3333333,91.4,240)"><tspan
         style="font-variant:normal;font-weight:normal;font-size:12px;font-family:Arial;writing-mode:lr-tb;fill:#000000;fill-opacity:1;fill-rule:nonzero;stroke:none"
         x="0 6.6719999"
         y="0"
         id="tspan158">40</tspan></text>
    <text
       id="text159"
       xml:space="preserve"
       transform="matrix(1.3333333,0,0,1.3333333,91.4,139.7)"><tspan
         style="font-variant:normal;font-weight:normal;font-size:12px;font-family:Arial;writing-mode:lr-tb;fill:#000000;fill-opacity:1;fill-rule:nonzero;stroke:none"
         x="0 6.6719999"
         y="0"
         id="tspan159">60</tspan></text>
    <text
       id="text160"
       xml:space="preserve"
       transform="matrix(1.3333333,0,0,1.3333333,91.4,39.4)"><tspan
         style="font-variant:normal;font-weight:normal;font-size:12px;font-family:Arial;writing-mode:lr-tb;fill:#000000;fill-opacity:1;fill-rule:nonzero;stroke:none"
         x="0 6.6719999"
         y="0"
         id="tspan160">80</tspan></text>
    <text
       id="text161"
       xml:space="preserve"
       transform="matrix(1.3333333,0,0,1.3333333,689.93333,440.6)"><tspan
         style="font-variant:normal;font-weight:normal;font-size:12px;font-family:Arial;writing-mode:lr-tb;fill:#000000;fill-opacity:1;fill-rule:nonzero;stroke:none"
         x="0"
         y="0"
         id="tspan161">0</tspan></text>
    <text
       id="text162"
       xml:space="preserve"
       transform="matrix(1.3333333,0,0,1.3333333,689.93333,373.73333)"><tspan
         style="font-variant:normal;font-weight:normal;font-size:12px;font-family:Arial;writing-mode:lr-tb;fill:#000000;fill-opacity:1;fill-rule:nonzero;stroke:none"
         x="0"
         y="0"
         id="tspan162">2</tspan></text>
    <text
       id="text163"
       xml:space="preserve"
       transform="matrix(1.3333333,0,0,1.3333333,689.93333,306.86667)"><tspan
         style="font-variant:normal;font-weight:normal;font-size:12px;font-family:Arial;writing-mode:lr-tb;fill:#000000;fill-opacity:1;fill-rule:nonzero;stroke:none"
         x="0"
         y="0"
         id="tspan163">4</tspan></text>
    <text
       id="text164"
       xml:space="preserve"
       transform="matrix(1.3333333,0,0,1.3333333,689.93333,240)"><tspan
         style="font-variant:normal;font-weight:normal;font-size:12px;font-family:Arial;writing-mode:lr-tb;fill:#000000;fill-opacity:1;fill-rule:nonzero;stroke:none"
         x="0"
         y="0"
         id="tspan164">6</tspan></text>
    <text
       id="text165"
       xml:space="preserve"
       transform="matrix(1.3333333,0,0,1.3333333,689.93333,173.13333)"><tspan
         style="font-variant:normal;font-weight:normal;font-size:12px;font-family:Arial;writing-mode:lr-tb;fill:#000000;fill-opacity:1;fill-rule:nonzero;stroke:none"
         x="0"
         y="0"
         id="tspan165">8</tspan></text>
    <text
       id="text166"
       xml:space="preserve"
       transform="matrix(1.3333333,0,0,1.3333333,689.93333,106.26667)"><tspan
         style="font-variant:normal;font-weight:normal;font-size:12px;font-family:Arial;writing-mode:lr-tb;fill:#000000;fill-opacity:1;fill-rule:nonzero;stroke:none"
         x="0 6.6719999"
         y="0"
         id="tspan166">10</tspan></text>
    <text
       id="text167"
       xml:space="preserve"
       transform="matrix(1.3333333,0,0,1.3333333,689.93333,39.4)"><tspan
         style="font-variant:normal;font-weight:normal;font-size:12px;font-family:Arial;writing-mode:lr-tb;fill:#000000;fill-opacity:1;fill-rule:nonzero;stroke:none"
         x="0 6.6719999"
         y="0"
         id="tspan167">12</tspan></text>
    <text
       id="text168"
       xml:space="preserve"
       transform="matrix(1.3333333,0,0,1.3333333,127.4478,465.93333)"><tspan
         style="font-variant:normal;font-weight:normal;font-size:12px;font-family:Arial;writing-mode:lr-tb;fill:#000000;fill-opacity:1;fill-rule:nonzero;stroke:none"
         x="0 6.6719999 9.9960003"
         y="0"
         id="tspan168">0.1</tspan></text>
    <text
       id="text169"
       xml:space="preserve"
       transform="matrix(1.3333333,0,0,1.3333333,286.14557,465.93333)"><tspan
         style="font-variant:normal;font-weight:normal;font-size:12px;font-family:Arial;writing-mode:lr-tb;fill:#000000;fill-opacity:1;fill-rule:nonzero;stroke:none"
         x="0 6.6719999 9.9960003"
         y="0"
         id="tspan169">0.5</tspan></text>
    <text
       id="text170"
       xml:space="preserve"
       transform="matrix(1.3333333,0,0,1.3333333,361.15963,465.93333)"><tspan
         style="font-variant:normal;font-weight:normal;font-size:12px;font-family:Arial;writing-mode:lr-tb;fill:#000000;fill-opacity:1;fill-rule:nonzero;stroke:none"
         x="0"
         y="0"
         id="tspan170">1</tspan></text>
    <text
       id="text171"
       xml:space="preserve"
       transform="matrix(1.3333333,0,0,1.3333333,519.85739,465.93333)"><tspan
         style="font-variant:normal;font-weight:normal;font-size:12px;font-family:Arial;writing-mode:lr-tb;fill:#000000;fill-opacity:1;fill-rule:nonzero;stroke:none"
         x="0"
         y="0"
         id="tspan171">5</tspan></text>
    <text
       id="text172"
       xml:space="preserve"
       transform="matrix(1.3333333,0,0,1.3333333,583.53813,465.93333)"><tspan
         style="font-variant:normal;font-weight:normal;font-size:12px;font-family:Arial;writing-mode:lr-tb;fill:#000000;fill-opacity:1;fill-rule:nonzero;stroke:none"
         x="0 6.6719999"
         y="0"
         id="tspan172">10</tspan></text>
  </g>
</svg>
