<?xml version="1.0" encoding="UTF-8" standalone="no"?>
<!-- Created with Inkscape (http://www.inkscape.org/) -->

<svg
   version="1.1"
   id="svg1"
   width="800"
   height="494.66666"
   viewBox="0 0 800 494.66666"
   xmlns="http://www.w3.org/2000/svg"
   xmlns:svg="http://www.w3.org/2000/svg">
  <defs
     id="defs1">
    <clipPath
       clipPathUnits="userSpaceOnUse"
       id="clipPath18">
      <path
         d="m 94.55,25.55 h 410.9 V 332.44998 H 94.55 Z"
         id="path18" />
    </clipPath>
    <clipPath
       clipPathUnits="userSpaceOnUse"
       id="clipPath20">
      <path
         d="m 94.55,25.55 h 410.9 V 332.44998 H 94.55 Z"
         id="path20" />
    </clipPath>
    <clipPath
       clipPathUnits="userSpaceOnUse"
       id="clipPath22">
      <path
         d="m 94.55,25.55 h 410.9 V 332.44998 H 94.55 Z"
         id="path22" />
    </clipPath>
    <clipPath
       clipPathUnits="userSpaceOnUse"
       id="clipPath24">
      <path
         d="m 94.55,25.55 h 410.9 V 332.44998 H 94.55 Z"
         id="path24" />
    </clipPath>
    <clipPath
       clipPathUnits="userSpaceOnUse"
       id="clipPath26">
      <path
         d="m 94.55,25.55 h 410.9 V 332.44998 H 94.55 Z"
         id="path26" />
    </clipPath>
    <clipPath
       clipPathUnits="userSpaceOnUse"
       id="clipPath28">
      <path
         d="m 94.55,25.55 h 410.9 V 332.44998 H 94.55 Z"
         id="path28" />
    </clipPath>
    <clipPath
       clipPathUnits="userSpaceOnUse"
       id="clipPath30">
      <path
         d="m 94.55,25.55 h 410.9 V 332.44998 H 94.55 Z"
         id="path30" />
    </clipPath>
    <clipPath
       clipPathUnits="userSpaceOnUse"
       id="clipPath32">
      <path
         d="m 94.55,25.55 h 410.9 V 332.44998 H 94.55 Z"
         id="path32" />
    </clipPath>
    <clipPath
       clipPathUnits="userSpaceOnUse"
       id="clipPath34">
      <path
         d="m 94.55,25.55 h 410.9 V 332.44998 H 94.55 Z"
         id="path34" />
    </clipPath>
    <clipPath
       clipPathUnits="userSpaceOnUse"
       id="clipPath36">
      <path
         d="m 94.55,25.55 h 410.9 V 332.44998 H 94.55 Z"
         id="path36" />
    </clipPath>
    <clipPath
       clipPathUnits="userSpaceOnUse"
       id="clipPath38">
      <path
         d="m 94.55,25.55 h 410.9 V 332.44998 H 94.55 Z"
         id="path38" />
    </clipPath>
    <clipPath
       clipPathUnits="userSpaceOnUse"
       id="clipPath40">
      <path
         d="m 94.55,25.55 h 410.9 V 332.44998 H 94.55 Z"
         id="path40" />
    </clipPath>
    <clipPath
       clipPathUnits="userSpaceOnUse"
       id="clipPath42">
      <path
         d="m 94.55,25.55 h 410.9 V 332.44998 H 94.55 Z"
         id="path42" />
    </clipPath>
    <clipPath
       clipPathUnits="userSpaceOnUse"
       id="clipPath44">
      <path
         d="m 94.55,25.55 h 410.9 V 332.44998 H 94.55 Z"
         id="path44" />
    </clipPath>
    <clipPath
       clipPathUnits="userSpaceOnUse"
       id="clipPath46">
      <path
         d="m 94.55,25.55 h 410.9 V 332.44998 H 94.55 Z"
         id="path46" />
    </clipPath>
    <clipPath
       clipPathUnits="userSpaceOnUse"
       id="clipPath48">
      <path
         d="m 94.55,25.55 h 410.9 V 332.44998 H 94.55 Z"
         id="path48" />
    </clipPath>
    <clipPath
       clipPathUnits="userSpaceOnUse"
       id="clipPath50">
      <path
         d="m 94.55,25.55 h 410.9 V 332.44998 H 94.55 Z"
         id="path50" />
    </clipPath>
    <clipPath
       clipPathUnits="userSpaceOnUse"
       id="clipPath52">
      <path
         d="m 94.55,25.55 h 410.9 V 332.44998 H 94.55 Z"
         id="path52" />
    </clipPath>
    <clipPath
       clipPathUnits="userSpaceOnUse"
       id="clipPath54">
      <path
         d="m 94.55,25.55 h 410.9 V 332.44998 H 94.55 Z"
         id="path54" />
    </clipPath>
    <clipPath
       clipPathUnits="userSpaceOnUse"
       id="clipPath56">
      <path
         d="m 94.55,25.55 h 410.9 V 332.44998 H 94.55 Z"
         id="path56" />
    </clipPath>
    <clipPath
       clipPathUnits="userSpaceOnUse"
       id="clipPath58">
      <path
         d="m 94.55,25.55 h 410.9 V 332.44998 H 94.55 Z"
         id="path58" />
    </clipPath>
    <clipPath
       clipPathUnits="userSpaceOnUse"
       id="clipPath60">
      <path
         d="m 94.55,25.55 h 410.9 V 332.44998 H 94.55 Z"
         id="path60" />
    </clipPath>
    <clipPath
       clipPathUnits="userSpaceOnUse"
       id="clipPath62">
      <path
         d="m 94.55,25.55 h 410.9 V 332.44998 H 94.55 Z"
         id="path62" />
    </clipPath>
    <clipPath
       clipPathUnits="userSpaceOnUse"
       id="clipPath64">
      <path
         d="m 94.55,25.55 h 410.9 V 332.44998 H 94.55 Z"
         id="path64" />
    </clipPath>
    <clipPath
       clipPathUnits="userSpaceOnUse"
       id="clipPath66">
      <path
         d="m 94.55,25.55 h 410.9 V 332.44998 H 94.55 Z"
         id="path66" />
    </clipPath>
    <clipPath
       clipPathUnits="userSpaceOnUse"
       id="clipPath68">
      <path
         d="m 94.55,25.55 h 410.9 V 332.44998 H 94.55 Z"
         id="path68" />
    </clipPath>
    <clipPath
       clipPathUnits="userSpaceOnUse"
       id="clipPath70">
      <path
         d="m 94.55,25.55 h 410.9 V 332.44998 H 94.55 Z"
         id="path70" />
    </clipPath>
    <clipPath
       clipPathUnits="userSpaceOnUse"
       id="clipPath72">
      <path
         d="m 94.55,25.55 h 410.9 V 332.44998 H 94.55 Z"
         id="path72" />
    </clipPath>
    <clipPath
       clipPathUnits="userSpaceOnUse"
       id="clipPath74">
      <path
         d="m 94.55,25.55 h 410.9 V 332.44998 H 94.55 Z"
         id="path74" />
    </clipPath>
    <clipPath
       clipPathUnits="userSpaceOnUse"
       id="clipPath76">
      <path
         d="m 94.55,25.55 h 410.9 V 332.44998 H 94.55 Z"
         id="path76" />
    </clipPath>
    <clipPath
       clipPathUnits="userSpaceOnUse"
       id="clipPath78">
      <path
         d="m 94.55,25.55 h 410.9 V 332.44998 H 94.55 Z"
         id="path78" />
    </clipPath>
    <clipPath
       clipPathUnits="userSpaceOnUse"
       id="clipPath80">
      <path
         d="m 94.55,25.55 h 410.9 V 332.44998 H 94.55 Z"
         id="path80" />
    </clipPath>
    <clipPath
       clipPathUnits="userSpaceOnUse"
       id="clipPath82">
      <path
         d="m 94.55,25.55 h 410.9 V 332.44998 H 94.55 Z"
         id="path82" />
    </clipPath>
    <clipPath
       clipPathUnits="userSpaceOnUse"
       id="clipPath84">
      <path
         d="m 94.55,25.55 h 410.9 V 332.44998 H 94.55 Z"
         id="path84" />
    </clipPath>
    <clipPath
       clipPathUnits="userSpaceOnUse"
       id="clipPath86">
      <path
         d="m 94.55,25.55 h 410.9 V 332.44998 H 94.55 Z"
         id="path86" />
    </clipPath>
    <clipPath
       clipPathUnits="userSpaceOnUse"
       id="clipPath88">
      <path
         d="m 94.55,25.55 h 410.9 V 332.44998 H 94.55 Z"
         id="path88" />
    </clipPath>
    <clipPath
       clipPathUnits="userSpaceOnUse"
       id="clipPath90">
      <path
         d="m 94.55,25.55 h 410.9 V 332.44998 H 94.55 Z"
         id="path90" />
    </clipPath>
    <clipPath
       clipPathUnits="userSpaceOnUse"
       id="clipPath92">
      <path
         d="m 94.55,25.55 h 410.9 V 332.44998 H 94.55 Z"
         id="path92" />
    </clipPath>
    <clipPath
       clipPathUnits="userSpaceOnUse"
       id="clipPath94">
      <path
         d="m 94.55,25.55 h 410.9 V 332.44998 H 94.55 Z"
         id="path94" />
    </clipPath>
    <clipPath
       clipPathUnits="userSpaceOnUse"
       id="clipPath96">
      <path
         d="m 94.55,25.55 h 410.9 V 332.44998 H 94.55 Z"
         id="path96" />
    </clipPath>
    <clipPath
       clipPathUnits="userSpaceOnUse"
       id="clipPath98">
      <path
         d="m 94.55,25.55 h 410.9 V 332.44998 H 94.55 Z"
         id="path98" />
    </clipPath>
    <clipPath
       clipPathUnits="userSpaceOnUse"
       id="clipPath100">
      <path
         d="m 94.55,25.55 h 410.9 V 332.44998 H 94.55 Z"
         id="path100" />
    </clipPath>
    <clipPath
       clipPathUnits="userSpaceOnUse"
       id="clipPath102">
      <path
         d="m 94.55,25.55 h 410.9 V 332.44998 H 94.55 Z"
         id="path102" />
    </clipPath>
    <clipPath
       clipPathUnits="userSpaceOnUse"
       id="clipPath104">
      <path
         d="m 94.55,25.55 h 410.9 V 332.44998 H 94.55 Z"
         id="path104" />
    </clipPath>
    <clipPath
       clipPathUnits="userSpaceOnUse"
       id="clipPath106">
      <path
         d="m 94.55,25.55 h 410.9 V 332.44998 H 94.55 Z"
         id="path106" />
    </clipPath>
    <clipPath
       clipPathUnits="userSpaceOnUse"
       id="clipPath108">
      <path
         d="m 94.55,25.55 h 410.9 V 332.44998 H 94.55 Z"
         id="path108" />
    </clipPath>
    <clipPath
       clipPathUnits="userSpaceOnUse"
       id="clipPath110">
      <path
         d="m 94.55,25.55 h 410.9 V 332.44998 H 94.55 Z"
         id="path110" />
    </clipPath>
    <clipPath
       clipPathUnits="userSpaceOnUse"
       id="clipPath112">
      <path
         d="m 94.55,25.55 h 410.9 V 332.44998 H 94.55 Z"
         id="path112" />
    </clipPath>
    <clipPath
       clipPathUnits="userSpaceOnUse"
       id="clipPath114">
      <path
         d="m 94.55,25.55 h 410.9 V 332.44998 H 94.55 Z"
         id="path114" />
    </clipPath>
    <clipPath
       clipPathUnits="userSpaceOnUse"
       id="clipPath116">
      <path
         d="m 94.55,25.55 h 410.9 V 332.44998 H 94.55 Z"
         id="path116" />
    </clipPath>
    <clipPath
       clipPathUnits="userSpaceOnUse"
       id="clipPath118">
      <path
         d="m 94.55,25.55 h 410.9 V 332.44998 H 94.55 Z"
         id="path118" />
    </clipPath>
    <clipPath
       clipPathUnits="userSpaceOnUse"
       id="clipPath120">
      <path
         d="m 94.55,25.55 h 410.9 V 332.44998 H 94.55 Z"
         id="path120" />
    </clipPath>
    <clipPath
       clipPathUnits="userSpaceOnUse"
       id="clipPath122">
      <path
         d="m 94.55,25.55 h 410.9 V 332.44998 H 94.55 Z"
         id="path122" />
    </clipPath>
    <clipPath
       clipPathUnits="userSpaceOnUse"
       id="clipPath124">
      <path
         d="m 94.55,25.55 h 410.9 V 332.44998 H 94.55 Z"
         id="path124" />
    </clipPath>
    <clipPath
       clipPathUnits="userSpaceOnUse"
       id="clipPath126">
      <path
         d="m 94.55,25.55 h 410.9 V 332.44998 H 94.55 Z"
         id="path126" />
    </clipPath>
    <clipPath
       clipPathUnits="userSpaceOnUse"
       id="clipPath128">
      <path
         d="m 94.55,25.55 h 410.9 V 332.44998 H 94.55 Z"
         id="path128" />
    </clipPath>
    <clipPath
       clipPathUnits="userSpaceOnUse"
       id="clipPath130">
      <path
         d="m 94.55,25.55 h 410.9 V 332.44998 H 94.55 Z"
         id="path130" />
    </clipPath>
    <clipPath
       clipPathUnits="userSpaceOnUse"
       id="clipPath132">
      <path
         d="m 94.55,25.55 h 410.9 V 332.44998 H 94.55 Z"
         id="path132" />
    </clipPath>
    <clipPath
       clipPathUnits="userSpaceOnUse"
       id="clipPath134">
      <path
         d="m 94.55,25.55 h 410.9 V 332.44998 H 94.55 Z"
         id="path134" />
    </clipPath>
    <clipPath
       clipPathUnits="userSpaceOnUse"
       id="clipPath136">
      <path
         d="m 94.55,25.55 h 410.9 V 332.44998 H 94.55 Z"
         id="path136" />
    </clipPath>
    <clipPath
       clipPathUnits="userSpaceOnUse"
       id="clipPath138">
      <path
         d="m 94.55,25.55 h 410.9 V 332.44998 H 94.55 Z"
         id="path138" />
    </clipPath>
    <clipPath
       clipPathUnits="userSpaceOnUse"
       id="clipPath140">
      <path
         d="m 94.55,25.55 h 410.9 V 332.44998 H 94.55 Z"
         id="path140" />
    </clipPath>
    <clipPath
       clipPathUnits="userSpaceOnUse"
       id="clipPath142">
      <path
         d="m 94.55,25.55 h 410.9 V 332.44998 H 94.55 Z"
         id="path142" />
    </clipPath>
    <clipPath
       clipPathUnits="userSpaceOnUse"
       id="clipPath144">
      <path
         d="m 94.55,25.55 h 410.9 V 332.44998 H 94.55 Z"
         id="path144" />
    </clipPath>
  </defs>
  <g
     id="g1">
    <path
       id="path1"
       d="M 0,0 H 600 V 371 H 0 Z"
       style="fill:#ffffff;fill-opacity:1;fill-rule:nonzero;stroke:none"
       transform="scale(1.3333333)" />
    <path
       id="path2"
       d="m 94.5,332.5 h 411"
       style="fill:none;stroke:#333333;stroke-width:1;stroke-linecap:butt;stroke-linejoin:miter;stroke-miterlimit:10;stroke-dasharray:none;stroke-opacity:1"
       transform="scale(1.3333333)" />
    <path
       id="path3"
       d="m 94.5,255.5 h 411"
       style="fill:none;stroke:#cccccc;stroke-width:1;stroke-linecap:butt;stroke-linejoin:miter;stroke-miterlimit:10;stroke-dasharray:none;stroke-opacity:1"
       transform="scale(1.3333333)" />
    <path
       id="path4"
       d="m 94.5,179.5 h 411"
       style="fill:none;stroke:#cccccc;stroke-width:1;stroke-linecap:butt;stroke-linejoin:miter;stroke-miterlimit:10;stroke-dasharray:none;stroke-opacity:1"
       transform="scale(1.3333333)" />
    <path
       id="path5"
       d="m 94.5,102.5 h 411"
       style="fill:none;stroke:#cccccc;stroke-width:1;stroke-linecap:butt;stroke-linejoin:miter;stroke-miterlimit:10;stroke-dasharray:none;stroke-opacity:1"
       transform="scale(1.3333333)" />
    <path
       id="path6"
       d="m 94.5,25.5 h 411"
       style="fill:none;stroke:#cccccc;stroke-width:1;stroke-linecap:butt;stroke-linejoin:miter;stroke-miterlimit:10;stroke-dasharray:none;stroke-opacity:1"
       transform="scale(1.3333333)" />
    <path
       id="path7"
       d="m 94.5,306 v 0 h 411 v 1 h -411 z"
       style="fill:#000000;fill-opacity:0;fill-rule:nonzero;stroke:none"
       transform="scale(1.3333333)" />
    <path
       id="path8"
       d="m 94.5,281 v 0 h 411 v 1 h -411 z"
       style="fill:#000000;fill-opacity:0;fill-rule:nonzero;stroke:none"
       transform="scale(1.3333333)" />
    <path
       id="path9"
       d="m 94.5,230 v 0 h 411 v 1 h -411 z"
       style="fill:#000000;fill-opacity:0;fill-rule:nonzero;stroke:none"
       transform="scale(1.3333333)" />
    <path
       id="path10"
       d="m 94.5,204 v 0 h 411 v 1 h -411 z"
       style="fill:#000000;fill-opacity:0;fill-rule:nonzero;stroke:none"
       transform="scale(1.3333333)" />
    <path
       id="path11"
       d="m 94.5,153 v 0 h 411 v 1 h -411 z"
       style="fill:#000000;fill-opacity:0;fill-rule:nonzero;stroke:none"
       transform="scale(1.3333333)" />
    <path
       id="path12"
       d="m 94.5,127 v 0 h 411 v 1 h -411 z"
       style="fill:#000000;fill-opacity:0;fill-rule:nonzero;stroke:none"
       transform="scale(1.3333333)" />
    <path
       id="path13"
       d="m 94.5,76 v 0 h 411 v 1 h -411 z"
       style="fill:#000000;fill-opacity:0;fill-rule:nonzero;stroke:none"
       transform="scale(1.3333333)" />
    <path
       id="path14"
       d="m 94.5,51 v 0 h 411 v 1 h -411 z"
       style="fill:#000000;fill-opacity:0;fill-rule:nonzero;stroke:none"
       transform="scale(1.3333333)" />
    <path
       id="path15"
       d="m 505.5,25.5 v 307"
       style="fill:none;stroke:#000000;stroke-width:1;stroke-linecap:butt;stroke-linejoin:miter;stroke-miterlimit:10;stroke-dasharray:none;stroke-opacity:1"
       transform="scale(1.3333333)" />
    <path
       id="path16"
       d="M 94.5,332.5 V 25.5"
       style="fill:none;stroke:#000000;stroke-width:1;stroke-linecap:butt;stroke-linejoin:miter;stroke-miterlimit:10;stroke-dasharray:none;stroke-opacity:1"
       transform="scale(1.3333333)" />
    <path
       id="path17"
       d="m 495.91415,180.27875 -31.70709,25.57499 -54.20364,-40.91999 -17.44968,-86.955 -22.49654,108.69375 -31.7071,30.69 -22.49655,-127.875 -24.25391,97.185 -15.69232,-29.41125 -19.65262,47.44163 -12.05447,-7.80038 -14.25742,26.85502 -17.44968,-46.03627 -36.75396,10.23 -71.65332,-67.77375"
       style="fill:none;stroke:#4285f4;stroke-width:2;stroke-linecap:butt;stroke-linejoin:miter;stroke-miterlimit:10;stroke-dasharray:none;stroke-opacity:1"
       transform="scale(1.3333333)"
       clip-path="url(#clipPath18)" />
    <path
       id="path19"
       d="m 495.91415,266.74265 -31.70709,-14.11721 -54.20364,-51.83234 -17.44968,13.97883 -22.49654,6.15898 -31.7071,-29.65308 -22.49655,32.83637 -24.25391,-103.73387 -15.69232,85.53373 -19.65262,-4.66382 -12.05447,37.60399 -14.25742,-4.35647 -17.44968,-13.98207 -36.75396,7.84407 -71.65332,3.29747"
       style="fill:none;stroke:#ea4335;stroke-width:2;stroke-linecap:butt;stroke-linejoin:miter;stroke-miterlimit:10;stroke-dasharray:none;stroke-opacity:1"
       transform="scale(1.3333333)"
       clip-path="url(#clipPath20)" />
    <path
       id="path21"
       d="M 495.91415,233.7305 H 464.20706 410.00342 392.55374 370.0572 338.3501 315.85355 291.59964 275.90732 256.2547 244.20023 229.94281 212.49313 175.73917 104.08585"
       style="fill:none;stroke:#ff0000;stroke-width:2;stroke-linecap:butt;stroke-linejoin:miter;stroke-miterlimit:10;stroke-dasharray:8, 6;stroke-dashoffset:0;stroke-opacity:1"
       transform="scale(1.3333333)"
       clip-path="url(#clipPath22)" />
    <path
       id="path23"
       d="M 495.91415,202.0175 H 464.20706 410.00342 392.55374 370.0572 338.3501 315.85355 291.59964 275.90732 256.2547 244.20023 229.94281 212.49313 175.73917 104.08585"
       style="fill:none;stroke:#4285f4;stroke-width:2;stroke-linecap:butt;stroke-linejoin:miter;stroke-miterlimit:10;stroke-dasharray:8, 6;stroke-dashoffset:0;stroke-opacity:1"
       transform="scale(1.3333333)"
       clip-path="url(#clipPath24)" />
    <path
       id="path25"
       d="m 495.91415,174.27875 5.19615,9 H 490.718 Z"
       style="fill:#4285f4;fill-opacity:1;fill-rule:nonzero;stroke:none"
       transform="scale(1.3333333)"
       clip-path="url(#clipPath26)" />
    <path
       id="path27"
       d="m 464.20706,199.85374 5.19614,9 h -10.3923 z"
       style="fill:#4285f4;fill-opacity:1;fill-rule:nonzero;stroke:none"
       transform="scale(1.3333333)"
       clip-path="url(#clipPath28)" />
    <path
       id="path29"
       d="m 410.00342,158.93375 5.19613,9 h -10.3923 z"
       style="fill:#4285f4;fill-opacity:1;fill-rule:nonzero;stroke:none"
       transform="scale(1.3333333)"
       clip-path="url(#clipPath30)" />
    <path
       id="path31"
       d="m 392.55374,71.97875 5.19614,9 h -10.39231 z"
       style="fill:#4285f4;fill-opacity:1;fill-rule:nonzero;stroke:none"
       transform="scale(1.3333333)"
       clip-path="url(#clipPath32)" />
    <path
       id="path33"
       d="m 370.0572,180.6725 5.19613,9 h -10.39231 z"
       style="fill:#4285f4;fill-opacity:1;fill-rule:nonzero;stroke:none"
       transform="scale(1.3333333)"
       clip-path="url(#clipPath34)" />
    <path
       id="path35"
       d="m 338.3501,211.3625 5.19613,9 h -10.3923 z"
       style="fill:#4285f4;fill-opacity:1;fill-rule:nonzero;stroke:none"
       transform="scale(1.3333333)"
       clip-path="url(#clipPath36)" />
    <path
       id="path37"
       d="m 315.85355,83.4875 5.19615,9 h -10.3923 z"
       style="fill:#4285f4;fill-opacity:1;fill-rule:nonzero;stroke:none"
       transform="scale(1.3333333)"
       clip-path="url(#clipPath38)" />
    <path
       id="path39"
       d="m 291.59964,180.6725 5.19616,9 h -10.3923 z"
       style="fill:#4285f4;fill-opacity:1;fill-rule:nonzero;stroke:none"
       transform="scale(1.3333333)"
       clip-path="url(#clipPath40)" />
    <path
       id="path41"
       d="m 275.90732,151.26125 5.19618,9 h -10.39232 z"
       style="fill:#4285f4;fill-opacity:1;fill-rule:nonzero;stroke:none"
       transform="scale(1.3333333)"
       clip-path="url(#clipPath42)" />
    <path
       id="path43"
       d="m 256.2547,198.70288 5.19617,9 h -10.39231 z"
       style="fill:#4285f4;fill-opacity:1;fill-rule:nonzero;stroke:none"
       transform="scale(1.3333333)"
       clip-path="url(#clipPath44)" />
    <path
       id="path45"
       d="m 244.20023,190.9025 5.19617,9 h -10.39233 z"
       style="fill:#4285f4;fill-opacity:1;fill-rule:nonzero;stroke:none"
       transform="scale(1.3333333)"
       clip-path="url(#clipPath46)" />
    <path
       id="path47"
       d="m 229.94281,217.75752 5.19615,9 h -10.3923 z"
       style="fill:#4285f4;fill-opacity:1;fill-rule:nonzero;stroke:none"
       transform="scale(1.3333333)"
       clip-path="url(#clipPath48)" />
    <path
       id="path49"
       d="m 212.49313,171.72125 5.19616,9 h -10.39231 z"
       style="fill:#4285f4;fill-opacity:1;fill-rule:nonzero;stroke:none"
       transform="scale(1.3333333)"
       clip-path="url(#clipPath50)" />
    <path
       id="path51"
       d="m 175.73917,181.95125 5.19615,9 h -10.39231 z"
       style="fill:#4285f4;fill-opacity:1;fill-rule:nonzero;stroke:none"
       transform="scale(1.3333333)"
       clip-path="url(#clipPath52)" />
    <path
       id="path53"
       d="m 104.08585,114.1775 5.19615,9 H 98.8897 Z"
       style="fill:#4285f4;fill-opacity:1;fill-rule:nonzero;stroke:none"
       transform="scale(1.3333333)"
       clip-path="url(#clipPath54)" />
    <path
       id="path55"
       d="m 501.91415,266.74265 c 0,3.31372 -2.68631,6 -6,6 -3.31372,0 -6,-2.68628 -6,-6 0,-3.31369 2.68628,-6 6,-6 3.31369,0 6,2.68631 6,6 z"
       style="fill:#ea4335;fill-opacity:1;fill-rule:nonzero;stroke:none"
       transform="scale(1.3333333)"
       clip-path="url(#clipPath56)" />
    <path
       id="path57"
       d="m 470.20706,252.62544 c 0,3.31371 -2.68631,5.99999 -6,5.99999 -3.31372,0 -6,-2.68628 -6,-5.99999 0,-3.3137 2.68628,-6 6,-6 3.31369,0 6,2.6863 6,6 z"
       style="fill:#ea4335;fill-opacity:1;fill-rule:nonzero;stroke:none"
       transform="scale(1.3333333)"
       clip-path="url(#clipPath58)" />
    <path
       id="path59"
       d="m 416.00342,200.7931 c 0,3.31371 -2.68632,6 -6,6 -3.31372,0 -6,-2.68629 -6,-6 0,-3.3137 2.68628,-6 6,-6 3.31368,0 6,2.6863 6,6 z"
       style="fill:#ea4335;fill-opacity:1;fill-rule:nonzero;stroke:none"
       transform="scale(1.3333333)"
       clip-path="url(#clipPath60)" />
    <path
       id="path61"
       d="m 398.55374,214.77193 c 0,3.3137 -2.68631,6 -6,6 -3.31372,0 -6,-2.6863 -6,-6 0,-3.31373 2.68628,-6 6,-6 3.31369,0 6,2.68627 6,6 z"
       style="fill:#ea4335;fill-opacity:1;fill-rule:nonzero;stroke:none"
       transform="scale(1.3333333)"
       clip-path="url(#clipPath62)" />
    <path
       id="path63"
       d="m 376.0572,220.93091 c 0,3.3137 -2.6863,6 -6,6 -3.31373,0 -6,-2.6863 -6,-6 0,-3.31372 2.68627,-6 6,-6 3.3137,0 6,2.68628 6,6 z"
       style="fill:#ea4335;fill-opacity:1;fill-rule:nonzero;stroke:none"
       transform="scale(1.3333333)"
       clip-path="url(#clipPath64)" />
    <path
       id="path65"
       d="m 344.3501,191.27783 c 0,3.31371 -2.6863,6 -6,6 -3.31372,0 -6,-2.68629 -6,-6 0,-3.31372 2.68628,-6 6,-6 3.3137,0 6,2.68628 6,6 z"
       style="fill:#ea4335;fill-opacity:1;fill-rule:nonzero;stroke:none"
       transform="scale(1.3333333)"
       clip-path="url(#clipPath66)" />
    <path
       id="path67"
       d="m 321.85355,224.1142 c 0,3.3137 -2.68628,6 -6,6 -3.31372,0 -6,-2.6863 -6,-6 0,-3.31371 2.68628,-6 6,-6 3.31372,0 6,2.68629 6,6 z"
       style="fill:#ea4335;fill-opacity:1;fill-rule:nonzero;stroke:none"
       transform="scale(1.3333333)"
       clip-path="url(#clipPath68)" />
    <path
       id="path69"
       d="m 297.59964,120.38033 c 0,3.31371 -2.68628,6 -6,6 -3.31369,0 -6,-2.68629 -6,-6 0,-3.31371 2.68631,-6 6,-6 3.31372,0 6,2.68629 6,6 z"
       style="fill:#ea4335;fill-opacity:1;fill-rule:nonzero;stroke:none"
       transform="scale(1.3333333)"
       clip-path="url(#clipPath70)" />
    <path
       id="path71"
       d="m 281.90732,205.91406 c 0,3.31371 -2.68628,6 -6,6 -3.31369,0 -6,-2.68629 -6,-6 0,-3.3137 2.68631,-6 6,-6 3.31372,0 6,2.6863 6,6 z"
       style="fill:#ea4335;fill-opacity:1;fill-rule:nonzero;stroke:none"
       transform="scale(1.3333333)"
       clip-path="url(#clipPath72)" />
    <path
       id="path73"
       d="m 262.2547,201.25024 c 0,3.31372 -2.68628,6 -6,6 -3.31369,0 -5.99999,-2.68628 -5.99999,-6 0,-3.3137 2.6863,-6 5.99999,-6 3.31372,0 6,2.6863 6,6 z"
       style="fill:#ea4335;fill-opacity:1;fill-rule:nonzero;stroke:none"
       transform="scale(1.3333333)"
       clip-path="url(#clipPath74)" />
    <path
       id="path75"
       d="m 250.20023,238.85423 c 0,3.31371 -2.68628,6 -6,6 -3.31371,0 -6,-2.68629 -6,-6 0,-3.3137 2.68629,-6 6,-6 3.31372,0 6,2.6863 6,6 z"
       style="fill:#ea4335;fill-opacity:1;fill-rule:nonzero;stroke:none"
       transform="scale(1.3333333)"
       clip-path="url(#clipPath76)" />
    <path
       id="path77"
       d="m 235.94281,234.49776 c 0,3.3137 -2.68629,6 -6,6 -3.31371,0 -6,-2.6863 -6,-6 0,-3.31372 2.68629,-6 6,-6 3.31371,0 6,2.68628 6,6 z"
       style="fill:#ea4335;fill-opacity:1;fill-rule:nonzero;stroke:none"
       transform="scale(1.3333333)"
       clip-path="url(#clipPath78)" />
    <path
       id="path79"
       d="m 218.49313,220.51569 c 0,3.31371 -2.68629,6 -6,6 -3.3137,0 -6,-2.68629 -6,-6 0,-3.31371 2.6863,-6 6,-6 3.31371,0 6,2.68629 6,6 z"
       style="fill:#ea4335;fill-opacity:1;fill-rule:nonzero;stroke:none"
       transform="scale(1.3333333)"
       clip-path="url(#clipPath80)" />
    <path
       id="path81"
       d="m 181.73917,228.35976 c 0,3.3137 -2.6863,6 -6,6 -3.31371,0 -6,-2.6863 -6,-6 0,-3.31372 2.68629,-6 6,-6 3.3137,0 6,2.68628 6,6 z"
       style="fill:#ea4335;fill-opacity:1;fill-rule:nonzero;stroke:none"
       transform="scale(1.3333333)"
       clip-path="url(#clipPath82)" />
    <path
       id="path83"
       d="m 110.08585,231.65723 c 0,3.3137 -2.68628,6 -6,6 -3.3137,0 -6,-2.6863 -6,-6 0,-3.31373 2.6863,-6 6,-6 3.31372,0 6,2.68627 6,6 z"
       style="fill:#ea4335;fill-opacity:1;fill-rule:nonzero;stroke:none"
       transform="scale(1.3333333)"
       clip-path="url(#clipPath84)" />
    <path
       id="path85"
       d="m 498.91415,233.7305 c 0,1.65686 -1.34317,3 -3,3 -1.65685,0 -3,-1.34314 -3,-3 0,-1.65686 1.34315,-3 3,-3 1.65683,0 3,1.34314 3,3 z"
       style="fill:#000000;fill-opacity:0;fill-rule:nonzero;stroke:none"
       transform="scale(1.3333333)"
       clip-path="url(#clipPath86)" />
    <path
       id="path87"
       d="m 467.20706,233.7305 c 0,1.65686 -1.34316,3 -3,3 -1.65686,0 -3,-1.34314 -3,-3 0,-1.65686 1.34314,-3 3,-3 1.65684,0 3,1.34314 3,3 z"
       style="fill:#000000;fill-opacity:0;fill-rule:nonzero;stroke:none"
       transform="scale(1.3333333)"
       clip-path="url(#clipPath88)" />
    <path
       id="path89"
       d="m 413.00342,233.7305 c 0,1.65686 -1.34317,3 -3,3 -1.65686,0 -3,-1.34314 -3,-3 0,-1.65686 1.34314,-3 3,-3 1.65683,0 3,1.34314 3,3 z"
       style="fill:#000000;fill-opacity:0;fill-rule:nonzero;stroke:none"
       transform="scale(1.3333333)"
       clip-path="url(#clipPath90)" />
    <path
       id="path91"
       d="m 395.55374,233.7305 c 0,1.65686 -1.34314,3 -3,3 -1.65686,0 -3,-1.34314 -3,-3 0,-1.65686 1.34314,-3 3,-3 1.65686,0 3,1.34314 3,3 z"
       style="fill:#000000;fill-opacity:0;fill-rule:nonzero;stroke:none"
       transform="scale(1.3333333)"
       clip-path="url(#clipPath92)" />
    <path
       id="path93"
       d="m 373.0572,233.7305 c 0,1.65686 -1.34315,3 -3,3 -1.65687,0 -3,-1.34314 -3,-3 0,-1.65686 1.34313,-3 3,-3 1.65685,0 3,1.34314 3,3 z"
       style="fill:#000000;fill-opacity:0;fill-rule:nonzero;stroke:none"
       transform="scale(1.3333333)"
       clip-path="url(#clipPath94)" />
    <path
       id="path95"
       d="m 341.3501,233.7305 c 0,1.65686 -1.34314,3 -3,3 -1.65686,0 -3,-1.34314 -3,-3 0,-1.65686 1.34314,-3 3,-3 1.65686,0 3,1.34314 3,3 z"
       style="fill:#000000;fill-opacity:0;fill-rule:nonzero;stroke:none"
       transform="scale(1.3333333)"
       clip-path="url(#clipPath96)" />
    <path
       id="path97"
       d="m 318.85355,233.7305 c 0,1.65686 -1.34315,3 -3,3 -1.65685,0 -3,-1.34314 -3,-3 0,-1.65686 1.34315,-3 3,-3 1.65685,0 3,1.34314 3,3 z"
       style="fill:#000000;fill-opacity:0;fill-rule:nonzero;stroke:none"
       transform="scale(1.3333333)"
       clip-path="url(#clipPath98)" />
    <path
       id="path99"
       d="m 294.59964,233.7305 c 0,1.65686 -1.34314,3 -3,3 -1.65686,0 -3,-1.34314 -3,-3 0,-1.65686 1.34314,-3 3,-3 1.65686,0 3,1.34314 3,3 z"
       style="fill:#000000;fill-opacity:0;fill-rule:nonzero;stroke:none"
       transform="scale(1.3333333)"
       clip-path="url(#clipPath100)" />
    <path
       id="path101"
       d="m 278.90732,233.7305 c 0,1.65686 -1.34314,3 -3,3 -1.65682,0 -3,-1.34314 -3,-3 0,-1.65686 1.34318,-3 3,-3 1.65686,0 3,1.34314 3,3 z"
       style="fill:#000000;fill-opacity:0;fill-rule:nonzero;stroke:none"
       transform="scale(1.3333333)"
       clip-path="url(#clipPath102)" />
    <path
       id="path103"
       d="m 259.2547,233.7305 c 0,1.65686 -1.34314,3 -3,3 -1.65685,0 -2.99999,-1.34314 -2.99999,-3 0,-1.65686 1.34314,-3 2.99999,-3 1.65686,0 3,1.34314 3,3 z"
       style="fill:#000000;fill-opacity:0;fill-rule:nonzero;stroke:none"
       transform="scale(1.3333333)"
       clip-path="url(#clipPath104)" />
    <path
       id="path105"
       d="m 247.20023,233.7305 c 0,1.65686 -1.34314,3 -3,3 -1.65685,0 -3,-1.34314 -3,-3 0,-1.65686 1.34315,-3 3,-3 1.65686,0 3,1.34314 3,3 z"
       style="fill:#000000;fill-opacity:0;fill-rule:nonzero;stroke:none"
       transform="scale(1.3333333)"
       clip-path="url(#clipPath106)" />
    <path
       id="path107"
       d="m 232.94281,233.7305 c 0,1.65686 -1.34314,3 -3,3 -1.65686,0 -3,-1.34314 -3,-3 0,-1.65686 1.34314,-3 3,-3 1.65686,0 3,1.34314 3,3 z"
       style="fill:#000000;fill-opacity:0;fill-rule:nonzero;stroke:none"
       transform="scale(1.3333333)"
       clip-path="url(#clipPath108)" />
    <path
       id="path109"
       d="m 215.49313,233.7305 c 0,1.65686 -1.34313,3 -3,3 -1.65684,0 -3,-1.34314 -3,-3 0,-1.65686 1.34316,-3 3,-3 1.65687,0 3,1.34314 3,3 z"
       style="fill:#000000;fill-opacity:0;fill-rule:nonzero;stroke:none"
       transform="scale(1.3333333)"
       clip-path="url(#clipPath110)" />
    <path
       id="path111"
       d="m 178.73917,233.7305 c 0,1.65686 -1.34314,3 -3,3 -1.65685,0 -3,-1.34314 -3,-3 0,-1.65686 1.34315,-3 3,-3 1.65686,0 3,1.34314 3,3 z"
       style="fill:#000000;fill-opacity:0;fill-rule:nonzero;stroke:none"
       transform="scale(1.3333333)"
       clip-path="url(#clipPath112)" />
    <path
       id="path113"
       d="m 107.08585,233.7305 c 0,1.65686 -1.34314,3 -3,3 -1.65685,0 -3,-1.34314 -3,-3 0,-1.65686 1.34315,-3 3,-3 1.65686,0 3,1.34314 3,3 z"
       style="fill:#000000;fill-opacity:0;fill-rule:nonzero;stroke:none"
       transform="scale(1.3333333)"
       clip-path="url(#clipPath114)" />
    <path
       id="path115"
       d="m 498.91415,202.0175 c 0,1.65685 -1.34317,3 -3,3 -1.65685,0 -3,-1.34315 -3,-3 0,-1.65686 1.34315,-3 3,-3 1.65683,0 3,1.34314 3,3 z"
       style="fill:#000000;fill-opacity:0;fill-rule:nonzero;stroke:none"
       transform="scale(1.3333333)"
       clip-path="url(#clipPath116)" />
    <path
       id="path117"
       d="m 467.20706,202.0175 c 0,1.65685 -1.34316,3 -3,3 -1.65686,0 -3,-1.34315 -3,-3 0,-1.65686 1.34314,-3 3,-3 1.65684,0 3,1.34314 3,3 z"
       style="fill:#000000;fill-opacity:0;fill-rule:nonzero;stroke:none"
       transform="scale(1.3333333)"
       clip-path="url(#clipPath118)" />
    <path
       id="path119"
       d="m 413.00342,202.0175 c 0,1.65685 -1.34317,3 -3,3 -1.65686,0 -3,-1.34315 -3,-3 0,-1.65686 1.34314,-3 3,-3 1.65683,0 3,1.34314 3,3 z"
       style="fill:#000000;fill-opacity:0;fill-rule:nonzero;stroke:none"
       transform="scale(1.3333333)"
       clip-path="url(#clipPath120)" />
    <path
       id="path121"
       d="m 395.55374,202.0175 c 0,1.65685 -1.34314,3 -3,3 -1.65686,0 -3,-1.34315 -3,-3 0,-1.65686 1.34314,-3 3,-3 1.65686,0 3,1.34314 3,3 z"
       style="fill:#000000;fill-opacity:0;fill-rule:nonzero;stroke:none"
       transform="scale(1.3333333)"
       clip-path="url(#clipPath122)" />
    <path
       id="path123"
       d="m 373.0572,202.0175 c 0,1.65685 -1.34315,3 -3,3 -1.65687,0 -3,-1.34315 -3,-3 0,-1.65686 1.34313,-3 3,-3 1.65685,0 3,1.34314 3,3 z"
       style="fill:#000000;fill-opacity:0;fill-rule:nonzero;stroke:none"
       transform="scale(1.3333333)"
       clip-path="url(#clipPath124)" />
    <path
       id="path125"
       d="m 341.3501,202.0175 c 0,1.65685 -1.34314,3 -3,3 -1.65686,0 -3,-1.34315 -3,-3 0,-1.65686 1.34314,-3 3,-3 1.65686,0 3,1.34314 3,3 z"
       style="fill:#000000;fill-opacity:0;fill-rule:nonzero;stroke:none"
       transform="scale(1.3333333)"
       clip-path="url(#clipPath126)" />
    <path
       id="path127"
       d="m 318.85355,202.0175 c 0,1.65685 -1.34315,3 -3,3 -1.65685,0 -3,-1.34315 -3,-3 0,-1.65686 1.34315,-3 3,-3 1.65685,0 3,1.34314 3,3 z"
       style="fill:#000000;fill-opacity:0;fill-rule:nonzero;stroke:none"
       transform="scale(1.3333333)"
       clip-path="url(#clipPath128)" />
    <path
       id="path129"
       d="m 294.59964,202.0175 c 0,1.65685 -1.34314,3 -3,3 -1.65686,0 -3,-1.34315 -3,-3 0,-1.65686 1.34314,-3 3,-3 1.65686,0 3,1.34314 3,3 z"
       style="fill:#000000;fill-opacity:0;fill-rule:nonzero;stroke:none"
       transform="scale(1.3333333)"
       clip-path="url(#clipPath130)" />
    <path
       id="path131"
       d="m 278.90732,202.0175 c 0,1.65685 -1.34314,3 -3,3 -1.65682,0 -3,-1.34315 -3,-3 0,-1.65686 1.34318,-3 3,-3 1.65686,0 3,1.34314 3,3 z"
       style="fill:#000000;fill-opacity:0;fill-rule:nonzero;stroke:none"
       transform="scale(1.3333333)"
       clip-path="url(#clipPath132)" />
    <path
       id="path133"
       d="m 259.2547,202.0175 c 0,1.65685 -1.34314,3 -3,3 -1.65685,0 -2.99999,-1.34315 -2.99999,-3 0,-1.65686 1.34314,-3 2.99999,-3 1.65686,0 3,1.34314 3,3 z"
       style="fill:#000000;fill-opacity:0;fill-rule:nonzero;stroke:none"
       transform="scale(1.3333333)"
       clip-path="url(#clipPath134)" />
    <path
       id="path135"
       d="m 247.20023,202.0175 c 0,1.65685 -1.34314,3 -3,3 -1.65685,0 -3,-1.34315 -3,-3 0,-1.65686 1.34315,-3 3,-3 1.65686,0 3,1.34314 3,3 z"
       style="fill:#000000;fill-opacity:0;fill-rule:nonzero;stroke:none"
       transform="scale(1.3333333)"
       clip-path="url(#clipPath136)" />
    <path
       id="path137"
       d="m 232.94281,202.0175 c 0,1.65685 -1.34314,3 -3,3 -1.65686,0 -3,-1.34315 -3,-3 0,-1.65686 1.34314,-3 3,-3 1.65686,0 3,1.34314 3,3 z"
       style="fill:#000000;fill-opacity:0;fill-rule:nonzero;stroke:none"
       transform="scale(1.3333333)"
       clip-path="url(#clipPath138)" />
    <path
       id="path139"
       d="m 215.49313,202.0175 c 0,1.65685 -1.34313,3 -3,3 -1.65684,0 -3,-1.34315 -3,-3 0,-1.65686 1.34316,-3 3,-3 1.65687,0 3,1.34314 3,3 z"
       style="fill:#000000;fill-opacity:0;fill-rule:nonzero;stroke:none"
       transform="scale(1.3333333)"
       clip-path="url(#clipPath140)" />
    <path
       id="path141"
       d="m 178.73917,202.0175 c 0,1.65685 -1.34314,3 -3,3 -1.65685,0 -3,-1.34315 -3,-3 0,-1.65686 1.34315,-3 3,-3 1.65686,0 3,1.34314 3,3 z"
       style="fill:#000000;fill-opacity:0;fill-rule:nonzero;stroke:none"
       transform="scale(1.3333333)"
       clip-path="url(#clipPath142)" />
    <path
       id="path143"
       d="m 107.08585,202.0175 c 0,1.65685 -1.34314,3 -3,3 -1.65685,0 -3,-1.34315 -3,-3 0,-1.65686 1.34315,-3 3,-3 1.65686,0 3,1.34314 3,3 z"
       style="fill:#000000;fill-opacity:0;fill-rule:nonzero;stroke:none"
       transform="scale(1.3333333)"
       clip-path="url(#clipPath144)" />
    <path
       id="path145"
       d="m 88.5,332.5 h 12"
       style="fill:none;stroke:#000000;stroke-width:1;stroke-linecap:butt;stroke-linejoin:miter;stroke-miterlimit:10;stroke-dasharray:none;stroke-opacity:1"
       transform="scale(1.3333333)" />
    <path
       id="path146"
       d="m 88.5,255.5 h 12"
       style="fill:none;stroke:#000000;stroke-width:1;stroke-linecap:butt;stroke-linejoin:miter;stroke-miterlimit:10;stroke-dasharray:none;stroke-opacity:1"
       transform="scale(1.3333333)" />
    <path
       id="path147"
       d="m 88.5,179.5 h 12"
       style="fill:none;stroke:#000000;stroke-width:1;stroke-linecap:butt;stroke-linejoin:miter;stroke-miterlimit:10;stroke-dasharray:none;stroke-opacity:1"
       transform="scale(1.3333333)" />
    <path
       id="path148"
       d="m 88.5,102.5 h 12"
       style="fill:none;stroke:#000000;stroke-width:1;stroke-linecap:butt;stroke-linejoin:miter;stroke-miterlimit:10;stroke-dasharray:none;stroke-opacity:1"
       transform="scale(1.3333333)" />
    <path
       id="path149"
       d="m 88.5,25.5 h 12"
       style="fill:none;stroke:#000000;stroke-width:1;stroke-linecap:butt;stroke-linejoin:miter;stroke-miterlimit:10;stroke-dasharray:none;stroke-opacity:1"
       transform="scale(1.3333333)" />
    <path
       id="path150"
       d="m 511.5,332.5 h -12"
       style="fill:none;stroke:#000000;stroke-width:1;stroke-linecap:butt;stroke-linejoin:miter;stroke-miterlimit:10;stroke-dasharray:none;stroke-opacity:1"
       transform="scale(1.3333333)" />
    <path
       id="path151"
       d="m 511.5,281.5 h -12"
       style="fill:none;stroke:#000000;stroke-width:1;stroke-linecap:butt;stroke-linejoin:miter;stroke-miterlimit:10;stroke-dasharray:none;stroke-opacity:1"
       transform="scale(1.3333333)" />
    <path
       id="path152"
       d="m 511.5,230.5 h -12"
       style="fill:none;stroke:#000000;stroke-width:1;stroke-linecap:butt;stroke-linejoin:miter;stroke-miterlimit:10;stroke-dasharray:none;stroke-opacity:1"
       transform="scale(1.3333333)" />
    <path
       id="path153"
       d="m 511.5,179.5 h -12"
       style="fill:none;stroke:#000000;stroke-width:1;stroke-linecap:butt;stroke-linejoin:miter;stroke-miterlimit:10;stroke-dasharray:none;stroke-opacity:1"
       transform="scale(1.3333333)" />
    <path
       id="path154"
       d="m 511.5,127.5 h -12"
       style="fill:none;stroke:#000000;stroke-width:1;stroke-linecap:butt;stroke-linejoin:miter;stroke-miterlimit:10;stroke-dasharray:none;stroke-opacity:1"
       transform="scale(1.3333333)" />
    <path
       id="path155"
       d="m 511.5,76.5 h -12"
       style="fill:none;stroke:#000000;stroke-width:1;stroke-linecap:butt;stroke-linejoin:miter;stroke-miterlimit:10;stroke-dasharray:none;stroke-opacity:1"
       transform="scale(1.3333333)" />
    <path
       id="path156"
       d="m 511.5,25.5 h -12"
       style="fill:none;stroke:#000000;stroke-width:1;stroke-linecap:butt;stroke-linejoin:miter;stroke-miterlimit:10;stroke-dasharray:none;stroke-opacity:1"
       transform="scale(1.3333333)" />
    <text
       id="text156"
       xml:space="preserve"
       transform="matrix(0,-1.3333333,1.3333333,0,44.733333,279.33333)"><tspan
         style="font-variant:normal;font-weight:normal;font-size:16px;font-family:Arial;writing-mode:lr-tb;fill:#4285f4;fill-opacity:1;fill-rule:nonzero;stroke:none"
         x="0 9.7600002 18.656 22.208 25.76 34.655998 39.984001"
         y="0"
         id="tspan156">Failure</tspan></text>
    <text
       id="text157"
       xml:space="preserve"
       transform="matrix(0,-1.3333333,1.3333333,0,769.93333,314)"><tspan
         style="font-variant:normal;font-weight:normal;font-size:16px;font-family:Arial;writing-mode:lr-tb;fill:#ff0000;fill-opacity:1;fill-rule:nonzero;stroke:none"
         x="0 11.552 15.104 23.104 31.104 40 53.327999 57.759998 66.655998 71.984001 76.416 81.744003 95.968002"
         y="0"
         id="tspan157">Discomfort(%)</tspan></text>
    <text
       id="text158"
       xml:space="preserve"
       transform="matrix(1.3333333,0,0,1.3333333,100.73333,448.6)"><tspan
         style="font-variant:normal;font-weight:normal;font-size:12px;font-family:Arial;writing-mode:lr-tb;fill:#000000;fill-opacity:1;fill-rule:nonzero;stroke:none"
         x="0"
         y="0"
         id="tspan158">0</tspan></text>
    <text
       id="text159"
       xml:space="preserve"
       transform="matrix(1.3333333,0,0,1.3333333,91.4,346.3)"><tspan
         style="font-variant:normal;font-weight:normal;font-size:12px;font-family:Arial;writing-mode:lr-tb;fill:#000000;fill-opacity:1;fill-rule:nonzero;stroke:none"
         x="0 6.6719999"
         y="0"
         id="tspan159">20</tspan></text>
    <text
       id="text160"
       xml:space="preserve"
       transform="matrix(1.3333333,0,0,1.3333333,91.4,244)"><tspan
         style="font-variant:normal;font-weight:normal;font-size:12px;font-family:Arial;writing-mode:lr-tb;fill:#000000;fill-opacity:1;fill-rule:nonzero;stroke:none"
         x="0 6.6719999"
         y="0"
         id="tspan160">40</tspan></text>
    <text
       id="text161"
       xml:space="preserve"
       transform="matrix(1.3333333,0,0,1.3333333,91.4,141.7)"><tspan
         style="font-variant:normal;font-weight:normal;font-size:12px;font-family:Arial;writing-mode:lr-tb;fill:#000000;fill-opacity:1;fill-rule:nonzero;stroke:none"
         x="0 6.6719999"
         y="0"
         id="tspan161">60</tspan></text>
    <text
       id="text162"
       xml:space="preserve"
       transform="matrix(1.3333333,0,0,1.3333333,91.4,39.4)"><tspan
         style="font-variant:normal;font-weight:normal;font-size:12px;font-family:Arial;writing-mode:lr-tb;fill:#000000;fill-opacity:1;fill-rule:nonzero;stroke:none"
         x="0 6.6719999"
         y="0"
         id="tspan162">80</tspan></text>
    <text
       id="text163"
       xml:space="preserve"
       transform="matrix(1.3333333,0,0,1.3333333,689.93333,448.6)"><tspan
         style="font-variant:normal;font-weight:normal;font-size:12px;font-family:Arial;writing-mode:lr-tb;fill:#000000;fill-opacity:1;fill-rule:nonzero;stroke:none"
         x="0"
         y="0"
         id="tspan163">0</tspan></text>
    <text
       id="text164"
       xml:space="preserve"
       transform="matrix(1.3333333,0,0,1.3333333,689.93333,380.4)"><tspan
         style="font-variant:normal;font-weight:normal;font-size:12px;font-family:Arial;writing-mode:lr-tb;fill:#000000;fill-opacity:1;fill-rule:nonzero;stroke:none"
         x="0"
         y="0"
         id="tspan164">2</tspan></text>
    <text
       id="text165"
       xml:space="preserve"
       transform="matrix(1.3333333,0,0,1.3333333,689.93333,312.2)"><tspan
         style="font-variant:normal;font-weight:normal;font-size:12px;font-family:Arial;writing-mode:lr-tb;fill:#000000;fill-opacity:1;fill-rule:nonzero;stroke:none"
         x="0"
         y="0"
         id="tspan165">4</tspan></text>
    <text
       id="text166"
       xml:space="preserve"
       transform="matrix(1.3333333,0,0,1.3333333,689.93333,244)"><tspan
         style="font-variant:normal;font-weight:normal;font-size:12px;font-family:Arial;writing-mode:lr-tb;fill:#000000;fill-opacity:1;fill-rule:nonzero;stroke:none"
         x="0"
         y="0"
         id="tspan166">6</tspan></text>
    <text
       id="text167"
       xml:space="preserve"
       transform="matrix(1.3333333,0,0,1.3333333,689.93333,175.8)"><tspan
         style="font-variant:normal;font-weight:normal;font-size:12px;font-family:Arial;writing-mode:lr-tb;fill:#000000;fill-opacity:1;fill-rule:nonzero;stroke:none"
         x="0"
         y="0"
         id="tspan167">8</tspan></text>
    <text
       id="text168"
       xml:space="preserve"
       transform="matrix(1.3333333,0,0,1.3333333,689.93333,107.6)"><tspan
         style="font-variant:normal;font-weight:normal;font-size:12px;font-family:Arial;writing-mode:lr-tb;fill:#000000;fill-opacity:1;fill-rule:nonzero;stroke:none"
         x="0 6.6719999"
         y="0"
         id="tspan168">10</tspan></text>
    <text
       id="text169"
       xml:space="preserve"
       transform="matrix(1.3333333,0,0,1.3333333,689.93333,39.4)"><tspan
         style="font-variant:normal;font-weight:normal;font-size:12px;font-family:Arial;writing-mode:lr-tb;fill:#000000;fill-opacity:1;fill-rule:nonzero;stroke:none"
         x="0 6.6719999"
         y="0"
         id="tspan169">12</tspan></text>
    <text
       id="text170"
       xml:space="preserve"
       transform="matrix(1.3333333,0,0,1.3333333,127.4478,465.93333)"><tspan
         style="font-variant:normal;font-weight:normal;font-size:12px;font-family:Arial;writing-mode:lr-tb;fill:#000000;fill-opacity:1;fill-rule:nonzero;stroke:none"
         x="0 6.6719999 9.9960003"
         y="0"
         id="tspan170">0.1</tspan></text>
    <text
       id="text171"
       xml:space="preserve"
       transform="matrix(1.3333333,0,0,1.3333333,295.25708,465.93333)"><tspan
         style="font-variant:normal;font-weight:normal;font-size:12px;font-family:Arial;writing-mode:lr-tb;fill:#000000;fill-opacity:1;fill-rule:nonzero;stroke:none"
         x="0 6.6719999 9.9960003"
         y="0"
         id="tspan171">0.5</tspan></text>
    <text
       id="text172"
       xml:space="preserve"
       transform="matrix(1.3333333,0,0,1.3333333,374.19527,465.93333)"><tspan
         style="font-variant:normal;font-weight:normal;font-size:12px;font-family:Arial;writing-mode:lr-tb;fill:#000000;fill-opacity:1;fill-rule:nonzero;stroke:none"
         x="0"
         y="0"
         id="tspan172">1</tspan></text>
    <text
       id="text173"
       xml:space="preserve"
       transform="matrix(1.3333333,0,0,1.3333333,542.00456,465.93333)"><tspan
         style="font-variant:normal;font-weight:normal;font-size:12px;font-family:Arial;writing-mode:lr-tb;fill:#000000;fill-opacity:1;fill-rule:nonzero;stroke:none"
         x="0"
         y="0"
         id="tspan173">5</tspan></text>
    <text
       id="text174"
       xml:space="preserve"
       transform="matrix(1.3333333,0,0,1.3333333,609.60941,465.93333)"><tspan
         style="font-variant:normal;font-weight:normal;font-size:12px;font-family:Arial;writing-mode:lr-tb;fill:#000000;fill-opacity:1;fill-rule:nonzero;stroke:none"
         x="0 6.6719999"
         y="0"
         id="tspan174">10</tspan></text>
  </g>
</svg>
